<?xml version="1.0" standalone="no"?>
<!DOCTYPE svg PUBLIC "-//W3C//DTD SVG 20010904//EN"
 "http://www.w3.org/TR/2001/REC-SVG-20010904/DTD/svg10.dtd">
<svg version="1.0" xmlns="http://www.w3.org/2000/svg"
 width="1024.000000pt" height="1024.000000pt" viewBox="0 0 1024.000000 1024.000000"
 preserveAspectRatio="xMidYMid meet">

<g transform="translate(0.000000,1024.000000) scale(0.100000,-0.100000)"
fill="#000000" stroke="none">
<path d="M2111 6933 l506 -3 12 -41 c7 -23 14 -39 17 -37 2 3 -2 22 -9 44
l-14 39 -509 0 -509 0 506 -2z"/>
<path d="M5150 6898 c-13 -26 -15 -35 -5 -24 8 11 15 23 15 28 0 4 5 8 11 8 5
0 8 -4 5 -9 -4 -5 -3 -11 1 -14 5 -2 3 -2 -4 -1 -14 3 -25 -24 -16 -39 3 -7 3
-9 -2 -5 -4 4 -14 0 -22 -10 -12 -16 -13 -16 -7 3 10 38 -40 -61 -138 -274
-55 -117 -97 -215 -95 -218 3 -2 17 26 32 62 16 36 30 63 32 61 4 -4 -33 -99
-69 -175 -12 -24 -21 -50 -21 -58 0 -7 -4 -13 -9 -13 -5 0 -6 -5 -3 -10 4 -6
14 -9 23 -8 13 2 17 -4 15 -22 -1 -14 17 14 42 65 42 86 56 127 34 95 -14 -20
-2 25 17 62 8 15 11 33 8 41 -3 8 2 17 10 20 19 7 18 54 -1 61 -7 3 -13 0 -13
-6 0 -6 -3 -9 -6 -5 -4 3 11 42 31 87 21 44 40 79 42 77 2 -2 -10 -34 -27 -70
-35 -77 -35 -77 -15 -77 8 0 15 -6 15 -12 0 -9 4 -8 10 2 14 22 12 33 -6 26
-9 -3 -12 -2 -9 5 4 5 12 8 18 6 15 -5 39 41 30 57 -4 8 -3 8 6 0 10 -9 8 -20
-8 -52 -29 -57 -26 -67 4 -12 13 25 22 52 19 61 -2 9 16 58 41 109 42 87 66
128 52 88 -4 -10 -4 -18 -2 -18 7 0 36 72 31 77 -2 3 -7 -5 -11 -16 -3 -12
-11 -19 -16 -16 -5 4 -3 13 5 21 22 21 913 26 921 5 4 -10 -1 -12 -19 -7 -18
4 -43 -8 -112 -57 -104 -74 -347 -305 -340 -323 3 -7 -3 -18 -12 -26 -15 -12
-16 -11 -3 7 7 11 -3 3 -23 -18 -20 -21 -34 -43 -30 -49 4 -6 3 -8 -3 -5 -5 3
-20 -8 -33 -26 l-23 -32 28 25 28 25 -19 -27 c-10 -15 -24 -28 -31 -28 -6 0
-22 -14 -34 -32 -13 -17 -18 -28 -11 -24 17 10 15 -7 -4 -30 -15 -19 -16 -19
-10 1 5 17 3 16 -12 -4 -29 -40 -122 -205 -122 -216 0 -5 15 17 34 50 64 117
88 156 93 152 2 -3 -10 -27 -27 -55 -19 -31 -28 -57 -24 -68 5 -15 4 -16 -5
-4 -8 12 -15 3 -36 -43 -14 -32 -23 -62 -21 -66 3 -4 -1 -8 -8 -8 -8 0 -12 7
-10 16 3 9 -8 -9 -24 -39 -16 -30 -32 -66 -36 -80 -4 -14 7 2 24 35 36 71 33
58 -10 -49 -17 -43 -38 -108 -45 -145 -8 -36 -21 -88 -29 -116 -38 -129 -44
-513 -10 -595 4 -8 8 -31 11 -50 5 -49 11 -62 24 -55 6 4 8 18 4 34 -4 14 -9
42 -12 61 -2 19 -6 42 -9 49 -3 8 -6 78 -8 155 -2 106 -2 120 3 56 l7 -85 4
110 c2 61 4 160 3 222 0 72 4 110 10 106 6 -4 8 6 4 26 -4 18 -3 30 2 27 5 -3
14 15 22 41 9 34 14 41 19 28 5 -13 9 -7 19 25 22 73 22 76 1 35 -24 -48 -15
-7 11 50 11 22 16 29 13 15 -10 -41 1 -21 45 80 22 52 64 133 91 179 28 46 50
86 50 89 0 2 -8 -2 -17 -9 -16 -13 -17 -12 -4 3 7 10 17 16 21 13 4 -3 19 13
34 35 28 42 32 55 16 45 -16 -10 -11 1 7 16 11 10 14 10 9 2 -18 -32 5 -7 53
55 48 61 48 63 9 20 -24 -27 -48 -48 -54 -48 -5 0 -4 4 1 8 6 4 28 28 49 55
21 26 41 45 44 42 3 -3 55 44 116 103 61 59 152 139 201 177 50 38 95 73 100
78 18 18 -18 -5 -58 -36 -21 -16 -40 -27 -43 -25 -4 4 84 69 126 93 13 8 13 7
0 -10 -14 -17 -14 -18 8 -6 12 7 20 16 17 22 -4 5 -2 8 3 7 12 -4 162 82 162
93 0 5 -245 9 -570 9 l-570 0 -20 -42z m120 24 c0 -4 -17 -6 -37 -4 -65 6 -70
10 -15 11 28 0 52 -3 52 -7z m98 2 c-10 -10 -58 -12 -64 -3 -3 5 12 9 32 9 21
0 35 -3 32 -6z m60 -1 c-10 -2 -26 -2 -35 0 -10 3 -2 5 17 5 19 0 27 -2 18 -5z
m259 0 c-8 -7 -218 -5 -226 2 -2 3 49 5 114 5 65 0 115 -3 112 -7z m231 2 c-8
-8 -207 -10 -215 -2 -3 4 45 7 107 7 62 0 111 -2 108 -5z m159 -2 c-9 -8 -125
-8 -134 1 -3 3 27 6 67 6 40 0 70 -3 67 -7z m154 -5 c0 -10 2 -10 6 0 2 6 17
12 31 12 l26 0 -23 -17 c-19 -13 -28 -14 -43 -4 -10 6 -22 10 -26 7 -5 -3 -14
-1 -22 5 -11 6 -6 9 18 9 19 0 32 -5 33 -12z m-22 -42 c-2 -2 -15 -9 -29 -15
-24 -11 -24 -11 -6 3 16 13 49 24 35 12z m-119 -38 c0 -6 -3 -8 -6 -5 -4 4
-20 -3 -36 -14 -16 -12 -31 -19 -34 -16 -5 5 54 45 69 46 4 1 7 -4 7 -11z
m-994 -85 c-14 -26 -25 -45 -26 -41 0 12 43 98 48 94 2 -2 -8 -26 -22 -53z
m894 33 c0 -2 -34 -31 -75 -65 -42 -35 -72 -67 -69 -73 4 -7 2 -8 -5 -4 -16
10 -175 -149 -165 -166 5 -10 4 -10 -7 0 -12 11 2 29 86 110 55 54 118 112
140 129 22 18 51 41 65 52 26 21 30 23 30 17z m-15 -74 c-104 -89 -135 -113
-135 -106 0 8 70 70 109 96 27 18 42 24 26 10z m-185 -156 c0 -2 -8 -10 -17
-17 -16 -13 -17 -12 -4 4 13 16 21 21 21 13z m-45 -55 c-3 -6 -11 -11 -16 -11
-5 0 -4 6 3 14 14 16 24 13 13 -3z m-740 -6 c0 -4 -10 -10 -22 -11 -16 -3 -21
0 -17 10 6 15 39 15 39 1z m715 -18 c0 -2 -10 -12 -21 -23 -22 -19 -22 -19
-10 4 10 18 31 31 31 19z m-117 -67 c-3 -12 -8 -19 -11 -16 -5 6 5 36 12 36 2
0 2 -9 -1 -20z m-655 -115 c-6 -14 -13 -23 -15 -21 -5 5 15 46 22 46 3 0 -1
-11 -7 -25z m558 -13 c-18 -16 -18 -16 -6 6 6 13 14 21 18 18 3 -4 -2 -14 -12
-24z m-588 -53 c-6 -16 -12 -28 -14 -26 -5 5 13 57 20 57 3 0 0 -14 -6 -31z
m612 11 c-6 -11 -13 -20 -16 -20 -2 0 0 9 6 20 6 11 13 20 16 20 2 0 0 -9 -6
-20z m-66 -107 c-10 -15 -21 -30 -24 -33 -3 -3 -21 -39 -41 -80 -25 -52 -36
-67 -35 -48 0 14 4 24 7 23 7 -5 49 81 49 100 0 8 4 15 10 15 5 0 17 14 25 31
9 17 19 29 22 26 2 -3 -4 -18 -13 -34z m-118 -230 c-8 -15 -15 -22 -16 -15 0
14 22 53 28 47 2 -2 -3 -16 -12 -32z m-129 -505 c-2 -13 -4 -5 -4 17 -1 22 1
32 4 23 2 -10 2 -28 0 -40z"/>
<path d="M6958 6933 c45 -2 81 -7 78 -11 -2 -4 -33 -7 -67 -5 -49 2 -65 -1
-75 -15 -9 -11 -13 -13 -14 -4 0 9 -16 12 -60 11 -33 -1 -60 -5 -60 -9 0 -4
-11 -5 -24 -3 -17 4 -25 0 -29 -14 -4 -14 -5 -15 -6 -2 0 9 -8 20 -17 23 -22
9 -134 -14 -131 -26 2 -10 -33 -25 -111 -49 -24 -7 -38 -15 -31 -19 6 -4 -11
-6 -38 -5 -36 2 -62 -4 -94 -21 -24 -13 -40 -23 -36 -24 4 0 26 9 48 21 23 11
38 16 35 10 -9 -14 -137 -73 -144 -67 -3 4 -1 6 4 6 6 0 19 7 30 15 29 24 -59
-21 -122 -61 -30 -19 -54 -37 -54 -40 0 -6 3 -4 78 43 28 19 52 31 52 29 0 -3
-30 -25 -67 -50 -73 -47 -113 -79 -116 -93 -1 -4 -7 -8 -13 -8 -15 0 -44 -31
-36 -39 3 -4 -2 -4 -12 0 -18 7 -17 9 9 30 15 12 33 21 39 20 6 -2 7 -1 3 2
-5 2 0 14 10 25 26 31 -74 -53 -162 -135 -44 -41 -74 -77 -71 -84 3 -7 0 -19
-7 -26 -7 -7 -24 -29 -37 -48 -27 -38 -60 -73 -60 -64 0 3 11 20 25 38 14 17
29 36 33 41 4 6 16 22 27 35 17 21 17 23 2 10 -31 -23 -109 -129 -103 -139 3
-5 -3 -20 -15 -32 l-20 -24 17 30 16 30 -21 -25 c-29 -35 -123 -191 -118 -197
3 -2 18 20 35 49 37 65 63 99 60 78 -2 -8 -8 -19 -15 -25 -20 -17 -82 -142
-75 -150 4 -5 2 -5 -4 -2 -6 4 -20 -17 -33 -51 -13 -31 -29 -70 -36 -87 -7
-16 -16 -41 -20 -54 -5 -15 -10 -19 -14 -12 -5 7 -13 -5 -20 -30 -7 -22 -10
-44 -7 -47 3 -3 6 3 6 13 0 10 2 16 5 13 3 -3 -1 -36 -9 -74 -40 -187 -54
-425 -26 -460 12 -14 12 -16 1 -9 -11 6 -13 0 -9 -39 3 -25 2 -46 -3 -46 -5 0
-8 -15 -8 -32 l1 -33 7 30 7 30 6 -30 c13 -66 19 -89 28 -105 5 -10 6 -20 3
-24 -3 -3 0 -6 8 -6 11 0 11 -2 -1 -10 -9 -6 -10 -10 -3 -10 17 0 26 18 16 33
-9 14 -13 33 -17 67 -8 81 -20 140 -28 140 -7 0 -7 4 0 13 16 19 20 183 4 179
-10 -2 -10 2 0 17 7 11 16 17 20 15 4 -3 7 14 7 38 l-2 43 -6 -35 -7 -35 -5
43 c-3 24 -1 46 4 49 5 3 7 14 4 24 -3 11 -1 19 3 19 5 0 11 -10 13 -22 4 -21
4 -21 6 3 0 14 -3 29 -8 35 -6 5 0 44 16 99 14 50 26 100 26 113 2 18 4 20 13
8 8 -12 14 -5 27 38 25 77 110 247 174 345 74 114 175 233 270 319 137 124
148 134 133 126 -13 -7 -13 -5 -1 9 15 19 36 23 25 5 -5 -7 8 -2 27 10 18 13
62 39 96 59 34 20 61 39 59 41 -6 5 -85 -39 -110 -60 -11 -10 -24 -18 -30 -18
-22 0 22 30 109 75 50 26 79 37 65 25 l-25 -21 38 18 c21 10 33 19 27 21 -25
9 153 79 280 111 90 23 252 46 271 38 8 -3 -4 -6 -26 -7 -22 -1 -53 -6 -70
-11 -27 -7 -27 -8 5 -2 19 3 425 8 903 10 704 3 867 1 867 -9 0 -9 3 -9 10 2
18 28 11 -9 -15 -81 -13 -38 -22 -76 -19 -84 4 -8 1 -15 -6 -15 -6 0 -9 -3 -7
-7 3 -5 -2 -14 -11 -22 -16 -15 -16 -11 3 56 3 10 -1 5 -8 -12 -19 -40 -31
-96 -17 -75 15 23 12 5 -11 -72 -18 -59 -19 -72 -8 -79 21 -13 29 -11 30 9 1
28 6 45 27 92 34 74 25 32 -23 -109 -25 -73 -45 -138 -44 -144 0 -7 23 53 50
133 38 110 47 149 40 162 -7 11 -7 19 -1 23 6 3 10 0 10 -7 0 -9 3 -9 10 2 5
8 10 20 10 25 0 6 -4 3 -10 -5 -8 -12 -10 -12 -16 3 -3 10 -4 21 0 24 3 3 0
13 -7 21 -10 13 -9 15 6 9 10 -4 21 -7 23 -7 2 0 4 -8 5 -17 0 -10 7 0 15 21
8 22 12 41 10 44 -3 2 -8 -8 -12 -23 -5 -19 -9 -23 -15 -14 -4 7 -1 22 7 33
16 24 18 36 4 36 -6 0 -9 -3 -9 -7 3 -18 -2 -33 -9 -33 -5 0 -7 13 -4 29 3 21
8 27 21 24 12 -3 19 6 28 39 7 26 8 47 2 54 -6 7 -3 11 7 11 16 0 16 -11 -1
-87 -7 -32 20 36 29 73 4 18 3 26 -3 23 -5 -4 -12 -2 -16 4 -4 7 -12 7 -26 0
-10 -6 -19 -7 -19 -2 0 12 -140 9 -159 -3 -9 -5 -12 -4 -7 3 4 7 -9 12 -36 15
-24 2 26 4 110 3 83 -1 152 2 152 7 0 4 -397 6 -882 5 -486 -1 -846 -4 -800
-5z m238 -10 c-4 -4 -36 -8 -71 -8 -35 0 -58 3 -52 7 15 10 133 10 123 1z
m577 0 c3 -5 -120 -8 -274 -8 -153 0 -279 3 -279 8 0 4 123 7 274 7 151 0 277
-3 279 -7z m63 -2 c-3 -5 -15 -7 -26 -4 -28 7 -25 13 6 13 14 0 23 -4 20 -9z
m84 0 c-8 -6 -17 -8 -21 -5 -4 2 -20 0 -36 -6 -26 -9 -27 -9 -9 5 11 8 34 15
50 15 23 0 27 -3 16 -9z m237 3 c-8 -9 -206 -9 -214 0 -3 3 45 6 107 6 62 0
110 -3 107 -6z m170 -1 c-12 -11 -147 -14 -147 -3 0 6 32 10 77 10 42 0 73 -3
70 -7z m-1644 -30 c3 -5 -18 -9 -47 -10 -42 -1 -45 0 -21 7 41 11 63 11 68 3z
m274 -9 c-3 -3 -12 -4 -19 -1 -8 3 -5 6 6 6 11 1 17 -2 13 -5z m-862 -284 c-3
-5 -11 -10 -16 -10 -6 0 -7 5 -4 10 3 6 11 10 16 10 6 0 7 -4 4 -10z m-65 -45
c0 -3 -14 -14 -32 -25 -76 -46 -292 -281 -361 -393 -16 -26 -32 -46 -35 -43
-2 3 1 12 7 20 7 8 9 21 5 27 -4 7 -3 9 3 6 6 -4 22 11 37 33 14 21 53 71 86
109 33 39 59 76 58 83 -2 6 2 12 8 13 6 0 30 17 53 38 34 31 40 41 31 53 -7 7
-17 11 -24 7 -6 -3 0 6 13 21 20 21 27 24 33 12 10 -18 43 -14 43 5 0 8 8 13
16 11 9 -1 22 5 29 13 12 14 30 20 30 10z m2465 -5 c3 -5 1 -10 -4 -10 -6 0
-11 5 -11 10 0 6 2 10 4 10 3 0 8 -4 11 -10z m-2655 -96 c-8 -8 -23 -20 -34
-26 -19 -10 -18 -8 3 16 26 27 53 37 31 10z m-50 -48 c0 -3 -4 -8 -10 -11 -5
-3 -10 -1 -10 4 0 6 5 11 10 11 6 0 10 -2 10 -4z m-247 -431 c-26 -50 -60
-121 -76 -160 -15 -38 -26 -56 -23 -39 8 48 11 59 17 64 4 3 24 41 46 85 58
118 74 147 78 143 3 -2 -17 -44 -42 -93z"/>
<path d="M5886 6501 c-3 -5 0 -14 8 -20 10 -9 15 -8 19 3 9 22 -15 37 -27 17z"/>
<path d="M6783 6923 c15 -2 37 -2 50 0 12 2 0 4 -28 4 -27 0 -38 -2 -22 -4z"/>
<path d="M1611 6915 c1 -19 18 -51 18 -35 0 8 -4 22 -9 30 -5 8 -9 11 -9 5z"/>
<path d="M1680 6911 c0 -12 59 -146 60 -135 0 6 -7 28 -15 47 -8 20 -15 44
-14 54 0 11 3 13 6 6 4 -10 98 -13 423 -13 l419 0 32 -100 c18 -54 35 -97 37
-95 2 2 -10 47 -28 100 -25 74 -29 100 -21 108 9 9 11 8 6 -5 -5 -13 -2 -18
11 -18 16 0 17 -2 4 -10 -13 -8 -12 -10 3 -10 9 0 17 -4 17 -10 0 -5 -5 -10
-11 -10 -6 0 -9 -6 -6 -12 2 -7 10 -12 16 -11 6 2 11 -2 11 -7 0 -6 -5 -10
-12 -10 -6 0 -9 -2 -6 -5 3 -3 12 -3 21 1 12 4 13 12 7 32 -5 15 -14 45 -19
68 l-11 40 -66 2 c-41 1 -73 -3 -82 -10 -13 -10 -14 -10 -8 0 4 6 2 12 -3 12
-6 0 -11 -4 -11 -8 0 -5 -7 -9 -15 -9 -8 0 -15 4 -15 8 0 4 -75 6 -167 5 -124
-2 -167 -5 -165 -14 3 -16 -4 -15 -22 4 -9 9 -16 11 -16 4 0 -6 -5 -8 -10 -5
-20 12 -170 13 -170 1 0 -7 -3 -8 -8 -1 -8 13 -65 19 -58 7 3 -5 -1 -9 -9 -9
-8 0 -12 3 -10 6 2 3 -19 7 -46 8 -27 1 -49 -2 -49 -6z"/>
<path d="M6703 6913 c9 -2 25 -2 35 0 9 3 1 5 -18 5 -19 0 -27 -2 -17 -5z"/>
<path d="M1640 6890 c0 -11 4 -20 9 -20 5 0 11 9 14 20 3 13 0 20 -9 20 -8 0
-14 -9 -14 -20z"/>
<path d="M1663 6865 c-16 -18 -17 -29 -2 -19 8 4 9 -1 4 -17 -4 -13 -4 -21 0
-17 7 6 18 69 12 68 -1 -1 -8 -7 -14 -15z"/>
<path d="M6440 6850 c-60 -25 -39 -25 25 0 28 10 43 19 35 19 -8 0 -35 -9 -60
-19z"/>
<path d="M6665 6843 c-92 -20 -182 -46 -204 -59 -15 -9 -18 -13 -6 -9 74 25
130 40 200 56 44 9 69 17 55 17 -14 0 -34 -2 -45 -5z"/>
<path d="M1686 6823 c-6 -14 -5 -15 5 -6 7 7 10 15 7 18 -3 3 -9 -2 -12 -12z"/>
<path d="M2653 6816 c3 -7 15 -46 27 -86 12 -39 23 -70 25 -68 6 6 -44 168
-51 168 -4 0 -4 -6 -1 -14z"/>
<path d="M6360 6820 c-8 -5 -10 -10 -5 -10 6 0 17 5 25 10 8 5 11 10 5 10 -5
0 -17 -5 -25 -10z"/>
<path d="M8522 6773 c-6 -20 -10 -39 -8 -41 2 -2 9 13 16 33 7 20 10 38 8 41
-3 2 -10 -13 -16 -33z"/>
<path d="M1651 6797 c-1 -5 33 -118 75 -250 103 -328 102 -324 103 -310 1 6
-26 99 -60 205 -75 239 -117 366 -118 355z"/>
<path d="M1685 6776 c24 -18 38 -20 33 -4 -2 6 -15 13 -28 15 -24 3 -24 3 -5
-11z"/>
<path d="M5157 6745 c-24 -50 -20 -58 4 -12 11 22 19 41 17 43 -3 2 -12 -12
-21 -31z"/>
<path d="M1681 6763 c0 -4 4 -17 9 -28 8 -19 9 -19 9 2 1 12 -3 25 -9 28 -5 3
-10 3 -9 -2z"/>
<path d="M2650 6754 c0 -14 -3 -14 -15 -4 -10 8 -15 9 -15 2 0 -6 10 -16 21
-23 17 -9 19 -13 8 -20 -11 -7 -10 -9 4 -9 18 0 23 15 8 24 -5 3 -7 15 -4 26
3 11 3 20 -1 20 -3 0 -6 -7 -6 -16z"/>
<path d="M6370 6750 c-46 -25 -34 -25 21 0 24 11 37 19 29 19 -8 0 -31 -8 -50
-19z"/>
<path d="M1742 6750 c0 -8 6 -31 13 -50 7 -19 13 -28 13 -20 0 8 -6 31 -13 50
-7 19 -13 28 -13 20z"/>
<path d="M1715 6740 c-3 -5 -4 -10 0 -10 3 0 0 -10 -6 -22 -11 -20 -10 -21 3
-11 8 7 17 10 20 8 3 -3 3 6 1 20 -6 27 -9 30 -18 15z"/>
<path d="M1716 6682 c-2 -4 4 -8 14 -8 10 0 16 4 14 8 -3 4 -9 8 -14 8 -5 0
-11 -4 -14 -8z"/>
<path d="M5123 6673 c-3 -10 -8 -22 -11 -27 -3 -5 0 -6 5 -3 11 7 25 47 17 47
-3 0 -7 -8 -11 -17z"/>
<path d="M1720 6638 c0 -12 3 -18 7 -15 3 4 15 -1 26 -10 11 -10 17 -13 14 -6
-4 6 -3 14 2 17 5 4 13 -8 17 -26 4 -18 9 -28 11 -22 2 5 -3 28 -11 50 -8 21
-15 31 -15 22 -1 -20 -26 -24 -37 -6 -4 6 -3 8 4 4 6 -3 13 -3 16 2 2 4 -4 9
-15 9 -13 1 -19 -5 -19 -19z"/>
<path d="M2635 6643 c14 -51 64 -187 64 -177 1 6 -10 44 -24 84 -14 41 -23 83
-20 94 3 12 2 15 -1 7 -5 -11 -8 -11 -16 0 -7 10 -8 8 -3 -8z"/>
<path d="M2713 6623 c1 -18 6 -28 10 -24 4 4 3 18 -2 32 -9 23 -9 22 -8 -8z"/>
<path d="M2665 6630 c-3 -5 -1 -10 4 -10 6 0 11 5 11 10 0 6 -2 10 -4 10 -3 0
-8 -4 -11 -10z"/>
<path d="M8442 6533 c-12 -37 -20 -69 -18 -71 2 -2 14 27 26 63 12 36 20 68
18 70 -2 3 -14 -26 -26 -62z"/>
<path d="M2685 6570 c-8 -13 12 -57 29 -63 9 -4 16 -14 16 -22 0 -10 -5 -13
-11 -9 -7 4 -10 1 -7 -7 3 -8 12 -13 21 -13 9 1 13 -4 10 -12 -3 -8 0 -14 6
-14 6 0 11 7 11 15 0 21 -22 65 -33 65 -5 0 -7 9 -4 21 4 15 2 19 -8 15 -8 -3
-17 -1 -20 4 -3 5 3 10 12 12 17 3 17 4 1 10 -10 4 -20 3 -23 -2z"/>
<path d="M1764 6563 c4 -7 2 -13 -3 -13 -6 0 -11 -5 -11 -11 0 -5 4 -8 9 -4 6
3 15 -4 21 -16 7 -13 8 -19 2 -15 -6 3 -13 2 -17 -4 -3 -5 -1 -10 5 -10 6 0 9
-4 6 -9 -4 -5 3 -7 13 -4 17 4 18 9 9 36 -6 18 -17 39 -26 47 -8 8 -12 9 -8 3z"/>
<path d="M1801 6554 c-1 -5 10 -41 23 -80 14 -38 25 -64 25 -58 1 5 -10 41
-23 80 -14 38 -25 64 -25 58z"/>
<path d="M2741 6550 c0 -8 6 -28 14 -45 17 -39 18 -21 0 25 -7 19 -14 28 -14
20z"/>
<path d="M5029 6472 c-6 -18 -16 -29 -22 -25 -6 3 -7 1 -3 -5 4 -6 0 -25 -9
-41 -8 -17 -15 -34 -15 -38 1 -4 17 23 36 61 19 37 33 71 30 74 -3 3 -11 -9
-17 -26z"/>
<path d="M2771 6460 c0 -8 6 -28 14 -45 17 -39 18 -21 0 25 -7 19 -14 28 -14
20z"/>
<path d="M8445 6450 c5 -15 4 -20 -4 -16 -6 4 -11 2 -11 -3 0 -16 19 -13 36 4
13 12 12 15 -7 25 -19 11 -20 10 -14 -10z"/>
<path d="M2701 6440 c-1 -27 13 -39 26 -24 8 8 9 15 3 19 -6 3 -10 0 -11 -7 0
-7 -4 -4 -9 7 -6 13 -9 15 -9 5z"/>
<path d="M8406 6426 c-3 -13 -9 -32 -12 -43 -5 -15 -4 -15 5 -3 8 12 10 7 5
-17 -4 -20 -2 -39 6 -48 9 -10 9 -15 1 -15 -6 0 -11 6 -12 13 0 6 -4 1 -10
-11 -10 -27 -3 -46 13 -36 7 5 8 2 3 -7 -5 -10 -5 -11 3 -4 16 15 52 124 45
140 -4 11 -10 12 -25 4 -18 -10 -19 -8 -13 20 8 36 0 42 -9 7z"/>
<path d="M2746 6414 c-11 -8 -14 -14 -7 -14 7 0 9 -5 5 -12 -5 -9 -2 -8 9 1
16 13 17 12 8 -13 -9 -21 -8 -26 4 -26 8 0 15 -5 15 -11 0 -5 -5 -7 -11 -3 -8
4 -9 -3 -4 -25 10 -46 -2 -38 -15 10 -6 23 -13 39 -16 36 -2 -2 8 -41 23 -86
20 -58 30 -76 35 -64 10 27 9 40 -2 23 -6 -9 -10 -10 -10 -3 0 6 -3 19 -7 29
-4 11 -2 15 4 11 13 -8 40 42 28 51 -6 4 -11 14 -13 22 -2 8 -8 17 -13 18 -5
2 -9 8 -9 13 0 6 5 7 11 3 8 -4 8 -1 1 12 -5 11 -11 24 -13 31 -3 8 -9 8 -23
-3z"/>
<path d="M1798 6394 c3 -18 9 -23 21 -19 13 5 14 4 4 -6 -15 -15 -17 -33 -4
-24 6 3 15 -5 22 -17 12 -22 11 -22 -6 -8 -17 14 -18 13 -12 -10 4 -14 7 -28
7 -32 0 -5 4 -8 10 -8 5 0 7 8 4 18 -5 14 -4 15 5 2 13 -18 14 -50 2 -50 -22
0 -17 -36 19 -147 21 -65 38 -110 39 -100 1 9 5 17 9 17 5 0 9 7 9 15 0 21
-17 19 -18 -2 -1 -10 -13 20 -29 67 -48 149 -45 137 -26 121 9 -7 16 -20 16
-27 0 -8 6 -14 13 -14 8 0 14 7 14 15 0 8 -3 12 -7 10 -4 -3 -16 5 -26 17 -19
20 -19 21 3 14 24 -8 24 -9 -5 79 -5 17 -15 49 -21 73 -8 30 -17 42 -30 42
-14 0 -17 -6 -13 -26z"/>
<path d="M1856 6375 c4 -16 11 -37 15 -45 6 -10 7 -4 3 15 -4 17 -11 37 -15
45 -6 10 -7 4 -3 -15z"/>
<path d="M8381 6344 c0 -11 3 -14 6 -6 3 7 2 16 -1 19 -3 4 -6 -2 -5 -13z"/>
<path d="M3661 6316 c-14 -18 -102 -196 -96 -196 3 0 28 45 56 101 27 56 53
99 56 96 3 -3 -11 -35 -31 -71 -20 -35 -36 -71 -36 -80 0 -9 -4 -16 -8 -16 -4
0 -17 -19 -29 -43 -20 -42 -20 -44 -2 -55 15 -9 20 -8 28 6 6 9 11 13 11 7 0
-5 -9 -25 -21 -44 -11 -18 -18 -35 -16 -37 2 -2 34 53 71 122 37 70 65 128 63
130 -2 2 -23 -33 -47 -79 -31 -60 -49 -83 -62 -82 -28 2 -30 10 -6 31 20 18
21 18 15 1 -16 -42 16 -1 48 64 31 60 33 69 18 70 -16 0 -15 2 2 9 14 6 15 9
5 10 -8 0 -1 7 15 14 17 7 33 11 38 9 4 -2 7 1 7 8 0 9 3 9 14 0 7 -6 37 -11
65 -10 29 1 56 -2 61 -7 5 -5 -23 -8 -72 -6 -44 2 -84 0 -89 -5 -4 -4 27 -7
71 -5 79 3 120 -7 120 -31 0 -7 -4 -6 -10 3 -11 17 -13 10 -4 -14 5 -12 9 -13
19 -3 7 7 10 17 7 22 -3 6 -1 6 4 2 5 -5 9 -23 9 -40 1 -21 5 -31 14 -29 7 1
10 -2 6 -8 -10 -16 5 -52 20 -47 10 4 10 0 1 -18 -11 -24 -12 -23 -34 23 -29
60 -23 39 19 -66 18 -45 34 -80 36 -78 2 2 -3 21 -11 41 -18 42 -21 68 -6 45
7 -11 10 -11 10 -2 0 7 4 11 8 8 5 -3 9 -24 10 -47 1 -23 7 -48 13 -55 6 -8 9
-14 5 -14 -4 0 0 -13 9 -30 8 -16 15 -33 14 -36 0 -4 5 -11 13 -15 7 -5 13
-18 13 -30 0 -12 6 -23 13 -25 7 -1 8 0 2 3 -17 8 -11 26 6 19 12 -5 15 -2 10
10 -3 8 -6 20 -6 25 0 6 -5 7 -12 3 -6 -4 -8 -3 -4 4 9 15 -14 63 -27 55 -6
-4 -8 2 -5 15 4 12 2 20 -3 16 -5 -3 -14 -2 -21 2 -8 5 -6 10 8 15 18 7 18 8
0 8 -14 1 -16 4 -7 14 17 21 -8 79 -31 73 -10 -2 -18 0 -18 5 0 5 5 9 10 9 14
0 12 46 -2 62 -7 7 -13 19 -14 26 -2 29 -5 33 -15 26 -8 -4 -9 0 -4 15 4 12 2
21 -4 21 -7 0 -7 8 -1 26 7 17 7 32 0 45 -9 16 -22 19 -85 19 -49 0 -75 -4
-78 -12 -4 -10 -6 -10 -6 0 -1 6 -6 12 -12 12 -5 0 -8 -4 -5 -8 3 -5 -17 -5
-45 -2 -31 4 -53 2 -58 -4z m283 -11 c3 -8 3 -22 0 -30 -7 -18 -28 -20 -21 -2
2 6 0 20 -5 30 -6 12 -5 17 6 17 7 0 16 -7 20 -15z m126 -389 c0 -3 -4 -8 -10
-11 -5 -3 -10 -1 -10 4 0 6 5 11 10 11 6 0 10 -2 10 -4z"/>
<path d="M2813 6286 c-6 -20 -7 -36 -2 -36 5 0 9 10 9 23 1 19 2 19 15 -8 17
-37 18 -22 1 24 l-12 33 -11 -36z"/>
<path d="M1882 6300 c0 -8 6 -31 13 -50 7 -19 13 -28 13 -20 0 8 -6 31 -13 50
-7 19 -13 28 -13 20z"/>
<path d="M4862 6285 c-17 -37 -14 -45 4 -12 9 16 14 31 11 33 -2 2 -9 -7 -15
-21z"/>
<path d="M8436 6285 c-3 -9 -6 -22 -5 -28 0 -7 5 -1 10 12 5 13 8 26 5 28 -2
2 -6 -3 -10 -12z"/>
<path d="M3966 6250 c4 -14 13 -38 20 -55 11 -24 13 -25 8 -5 -4 14 -13 39
-20 55 -11 24 -13 25 -8 5z"/>
<path d="M8340 6243 c-8 -13 -13 -14 -16 -5 -5 9 -155 11 -712 10 l-707 -3
700 -5 c385 -3 664 -7 620 -8 -44 -2 -156 -3 -248 -2 -115 0 -167 -3 -162 -10
4 -6 -3 -10 -17 -10 -18 0 -20 2 -8 10 10 7 -9 10 -62 10 -46 0 -78 -4 -78
-10 0 -5 -5 -10 -11 -10 -5 0 -8 4 -4 9 3 6 -90 10 -241 11 -166 0 -243 -3
-239 -10 3 -5 1 -10 -4 -10 -6 0 -11 5 -11 10 0 6 -11 10 -25 10 -14 0 -25 -6
-25 -12 0 -10 -2 -10 -9 0 -10 17 -149 15 -251 -4 -85 -16 -116 -17 -85 -4 13
5 14 9 5 9 -8 0 -24 -4 -35 -9 -17 -7 -17 -9 -2 -9 9 -1 17 -8 17 -16 0 -19
-32 -33 -38 -17 -2 7 -8 12 -13 12 -6 0 -7 -5 -3 -11 4 -7 0 -9 -14 -5 -11 4
-23 2 -27 -4 -3 -6 -11 -7 -17 -4 -6 4 -5 10 3 15 8 5 10 9 4 9 -5 0 -17 -5
-25 -10 -10 -6 -11 -10 -2 -10 6 0 12 -8 12 -17 0 -12 -3 -14 -8 -6 -9 14 -75
-14 -95 -41 -7 -9 -28 -19 -46 -21 -32 -4 -33 -4 -15 11 12 10 6 9 -16 -3 -22
-12 -35 -27 -36 -41 -1 -12 -2 -26 -3 -31 0 -5 -14 -9 -31 -9 -16 1 -27 5 -24
10 3 5 12 7 18 5 7 -3 19 -1 27 4 11 7 11 9 1 9 -8 0 -10 5 -6 12 10 16 -40
-22 -92 -69 -45 -41 -126 -139 -145 -175 -16 -31 0 -14 49 54 35 48 46 56 69
53 25 -2 26 -2 8 11 -10 8 -17 15 -14 16 2 2 19 17 38 33 27 24 31 26 20 8 -8
-13 -17 -23 -21 -23 -4 0 -6 -19 -4 -42 3 -37 2 -40 -9 -24 -11 14 -17 16 -35
6 -17 -9 -19 -14 -10 -25 12 -15 6 -35 -12 -35 -5 0 -7 8 -4 18 3 9 -7 2 -24
-16 -16 -18 -30 -41 -30 -52 0 -11 -5 -20 -11 -20 -11 0 -2 -43 11 -48 4 -2 6
-11 3 -21 -3 -12 -13 -16 -34 -15 -42 3 -44 8 -20 50 12 20 20 39 17 41 -12
12 -42 -76 -42 -119 1 -25 -2 -44 -6 -42 -9 6 -30 -62 -26 -82 2 -10 11 -18
20 -20 13 -2 20 11 29 52 12 51 29 82 29 52 0 -7 18 23 39 67 21 44 55 103 76
130 21 28 28 41 17 31 -12 -11 -22 -15 -22 -9 0 5 9 18 20 28 11 10 20 14 20
9 0 -4 19 10 43 32 23 23 65 58 92 79 70 55 73 57 50 50 -19 -6 -19 -6 -3 8
10 8 14 18 10 22 -4 5 -2 5 5 1 7 -4 26 0 42 9 17 8 34 15 38 15 4 -1 -9 -10
-29 -21 -21 -11 -38 -22 -38 -24 0 -3 18 4 39 15 32 16 38 24 34 41 -4 13 -2
20 4 16 5 -3 48 7 94 24 47 17 95 28 109 25 14 -2 45 0 70 6 28 7 313 13 750
18 l705 6 -710 -2 c-390 -1 -726 -4 -745 -8 l-35 -6 30 11 c19 8 153 13 368
16 190 3 337 9 337 14 0 5 10 9 23 8 21 0 21 -1 2 -9 -13 -6 6 -9 59 -8 47 0
73 4 65 9 -10 6 -4 9 18 9 17 0 35 -5 38 -10 4 -7 55 -11 133 -10 339 3 493 0
487 -10 -3 -5 1 -10 10 -10 10 0 14 5 10 13 -4 6 0 4 8 -5 13 -16 15 -16 25 8
17 37 14 54 -3 19 l-15 -30 4 27 c3 30 -17 57 -29 38 -3 -5 -11 -10 -16 -10
-6 0 -7 5 -4 10 3 6 4 10 1 10 -3 0 -10 -8 -16 -17z m-1327 -30 c-7 -2 -19 -2
-25 0 -7 3 -2 5 12 5 14 0 19 -2 13 -5z m400 0 c-7 -2 -19 -2 -25 0 -7 3 -2 5
12 5 14 0 19 -2 13 -5z m74 1 c-3 -3 -12 -4 -19 -1 -8 3 -5 6 6 6 11 1 17 -2
13 -5z m-698 -35 c-16 -10 -23 -4 -14 10 3 6 11 8 17 5 6 -4 5 -9 -3 -15z
m-362 -123 c0 -8 -6 -12 -14 -9 -7 3 -10 9 -7 14 8 14 21 11 21 -5z m-17 -74
c-19 -15 -54 -44 -77 -66 -24 -21 -43 -33 -43 -27 0 6 5 11 11 11 6 0 9 9 6
20 -5 20 8 29 15 10 2 -5 21 8 43 29 35 33 57 48 75 50 3 0 -11 -12 -30 -27z
m-184 -184 c-9 -13 -24 -37 -33 -55 -9 -18 -20 -30 -25 -27 -5 3 1 19 12 35
12 16 18 34 14 40 -4 7 -3 9 3 6 6 -4 16 0 23 8 20 24 24 17 6 -7z m-85 -159
c-7 -16 -10 -19 -10 -7 -1 9 -7 18 -13 21 -7 2 -5 3 5 2 9 -2 17 2 17 8 0 6 2
8 5 5 3 -3 1 -16 -4 -29z m-61 -109 c0 -5 -5 -10 -11 -10 -5 0 -7 5 -4 10 3 6
8 10 11 10 2 0 4 -4 4 -10z"/>
<path d="M6843 6233 c9 -2 25 -2 35 0 9 3 1 5 -18 5 -19 0 -27 -2 -17 -5z"/>
<path d="M6788 6223 c6 -2 18 -2 25 0 6 3 1 5 -13 5 -14 0 -19 -2 -12 -5z"/>
<path d="M4811 6173 c-12 -25 -20 -48 -17 -50 3 -3 12 10 20 28 8 19 15 26 15
17 1 -9 4 -25 7 -35 5 -14 4 -15 -4 -4 -8 12 -16 3 -35 -40 -45 -102 -70 -150
-73 -146 -3 2 12 39 31 82 20 43 34 79 32 81 -3 3 -218 -455 -225 -480 -2 -6
1 -5 6 3 8 11 10 11 14 0 3 -9 6 -8 11 5 4 10 3 15 -3 11 -6 -3 -10 -4 -10 -1
0 18 135 284 142 280 4 -3 0 -17 -9 -32 -46 -70 -112 -221 -108 -250 4 -35
-12 -55 -34 -42 -15 7 -23 -3 -55 -67 -20 -41 -35 -78 -31 -81 3 -3 5 0 5 7 0
7 5 9 12 5 7 -5 9 -2 6 8 -4 8 -2 21 2 29 7 10 9 9 8 -6 0 -11 1 -27 3 -35 3
-10 -5 -16 -23 -18 -16 -2 -25 -8 -23 -15 7 -17 -44 -147 -57 -147 -4 0 7 30
23 66 17 36 28 68 26 70 -2 2 -23 -37 -46 -87 -23 -50 -39 -94 -36 -97 3 -3 5
0 5 7 0 7 5 9 10 6 8 -5 8 -11 1 -19 -6 -7 -7 -17 -3 -22 4 -4 -1 -2 -11 6
-16 12 -20 12 -27 0 -11 -17 -19 -11 -25 18 -2 11 -9 30 -15 42 -6 11 -8 26
-4 32 4 6 15 -7 25 -33 10 -24 18 -39 18 -33 1 12 -48 136 -56 144 -5 5 3 -27
14 -57 3 -7 0 -13 -7 -13 -6 0 -9 3 -6 8 2 4 -6 31 -18 60 -15 35 -25 49 -32
42 -7 -7 -11 -6 -11 4 0 8 4 13 9 10 4 -3 8 0 8 5 0 6 -3 11 -7 11 -5 0 -9 11
-9 25 -1 14 -7 39 -14 54 -16 39 -68 53 -53 15 3 -8 10 -11 16 -7 6 3 7 1 3
-5 -8 -13 32 -132 44 -132 11 0 20 -39 10 -45 -5 -3 -12 4 -15 16 -4 11 -9 19
-11 16 -2 -2 22 -71 54 -152 60 -151 92 -198 113 -164 13 21 11 35 -3 16 -9
-11 -18 -14 -27 -8 -11 7 -10 11 7 20 23 12 48 71 30 71 -6 0 -1 9 11 19 13
11 20 24 17 29 -3 5 1 9 9 9 19 0 19 1 -10 -57 -14 -27 -25 -53 -25 -57 1 -11
79 140 79 152 0 6 -6 -1 -14 -15 -8 -15 -14 -19 -14 -10 -1 20 16 45 28 45 10
0 92 158 90 173 0 4 -20 -31 -44 -78 -52 -100 -59 -102 -13 -4 18 38 31 80 30
94 -1 15 1 20 6 13 5 -8 34 43 77 135 38 81 93 198 122 260 53 113 62 139 43
127 -6 -3 -7 1 -3 10 4 11 8 13 12 6 4 -6 22 20 41 59 18 38 37 67 42 64 4 -3
5 2 2 11 -5 11 -10 13 -19 5 -17 -14 -31 6 -17 23 7 8 6 16 -3 23 -9 9 -17 2
-34 -33z m-262 -621 c-6 -18 -15 -32 -20 -32 -5 0 -1 16 8 35 20 42 27 40 12
-3z m-259 -227 c0 -2 -7 -2 -15 2 -12 4 -10 -8 11 -53 14 -33 31 -72 36 -87 8
-22 13 -25 24 -16 8 7 18 9 22 5 4 -4 -1 -12 -10 -17 -13 -7 -16 -18 -12 -42
2 -18 -18 24 -46 93 -27 69 -50 129 -50 133 0 4 9 3 20 -3 11 -6 20 -13 20
-15z"/>
<path d="M1915 6188 c5 -25 2 -28 -21 -28 -20 0 -25 -4 -20 -16 3 -9 9 -27 12
-40 4 -15 13 -24 25 -24 17 0 23 -12 22 -47 -1 -7 3 -13 8 -13 12 0 11 18 -6
65 -8 22 -14 47 -14 55 0 8 9 -7 19 -35 10 -27 19 -45 19 -39 1 5 -10 41 -24
80 -14 38 -23 57 -20 42z m-5 -73 c0 -8 -2 -15 -4 -15 -2 0 -6 7 -10 15 -3 8
-1 15 4 15 6 0 10 -7 10 -15z"/>
<path d="M2820 6199 c0 -5 5 -7 10 -4 6 3 10 2 10 -4 0 -5 -4 -13 -10 -16 -6
-4 -4 -15 6 -30 12 -18 12 -24 2 -28 -9 -4 -7 -6 4 -6 9 -1 20 4 23 9 3 6 2
10 -4 10 -6 0 -8 7 -5 15 4 10 0 15 -11 15 -14 0 -15 3 -5 15 12 15 6 35 -11
35 -5 0 -9 -5 -9 -11z"/>
<path d="M2867 6175 c9 -41 7 -94 -6 -109 -7 -8 -7 -16 -1 -22 5 -5 6 -15 2
-21 -5 -8 -19 22 -36 73 -15 47 -30 84 -32 82 -2 -3 21 -80 52 -172 31 -92 58
-165 60 -163 3 2 0 17 -6 32 -6 16 -8 35 -6 42 3 8 1 11 -4 8 -6 -3 -10 0 -10
7 0 8 9 14 20 15 17 2 19 -1 9 -19 -8 -16 -8 -22 2 -29 8 -4 17 -5 22 0 10 10
-2 61 -15 61 -6 0 -7 7 -4 16 4 10 2 13 -6 8 -6 -4 -8 -3 -5 3 3 5 2 23 -3 39
-5 18 -9 23 -10 12 -2 -10 -4 -22 -5 -28 -1 -5 -3 -22 -5 -37 l-2 -28 -10 28
c-7 20 -7 32 2 42 6 8 9 19 6 24 -4 5 -2 12 2 15 5 3 7 18 5 33 l-4 28 15 -30
c13 -25 15 -26 9 -5 -9 39 -44 129 -36 95z"/>
<path d="M4000 6155 c0 -5 5 -17 10 -25 5 -8 10 -10 10 -5 0 6 -5 17 -10 25
-5 8 -10 11 -10 5z"/>
<path d="M6518 6134 c-27 -13 -48 -27 -48 -29 0 -5 99 42 109 51 13 11 -20 0
-61 -22z"/>
<path d="M6748 6143 c7 -3 16 -2 19 1 4 3 -2 6 -13 5 -11 0 -14 -3 -6 -6z"/>
<path d="M4806 5984 c-37 -81 -65 -148 -63 -150 2 -2 33 62 70 143 37 80 66
147 64 150 -2 2 -34 -62 -71 -143z"/>
<path d="M6660 6120 c-18 -12 -2 -12 25 0 13 6 15 9 5 9 -8 0 -22 -4 -30 -9z"/>
<path d="M3525 6060 c-14 -27 -23 -50 -20 -50 2 0 16 23 30 50 14 28 23 50 20
50 -2 0 -16 -22 -30 -50z"/>
<path d="M6600 6095 c-14 -8 -20 -14 -15 -14 6 0 21 6 35 14 14 8 21 14 15 14
-5 0 -21 -6 -35 -14z"/>
<path d="M2845 6080 c3 -5 8 -10 11 -10 2 0 4 5 4 10 0 6 -5 10 -11 10 -5 0
-7 -4 -4 -10z"/>
<path d="M4030 6075 c0 -14 83 -215 87 -211 3 3 -75 207 -83 215 -2 2 -4 0 -4
-4z"/>
<path d="M1900 6060 c0 -5 5 -10 10 -10 6 0 10 5 10 10 0 6 -4 10 -10 10 -5 0
-10 -4 -10 -10z"/>
<path d="M2911 6040 c0 -8 4 -22 9 -30 12 -18 12 -2 0 25 -6 13 -9 15 -9 5z"/>
<path d="M3518 6004 c-11 -24 -25 -47 -30 -50 -6 -4 -5 4 2 16 6 12 10 23 8
25 -4 4 -321 -588 -326 -608 -2 -7 2 -3 9 8 7 11 15 22 18 25 4 3 17 28 30 57
13 29 29 49 34 46 6 -3 7 -1 3 5 -4 6 7 35 24 64 35 63 39 59 8 -8 -12 -27
-22 -51 -23 -54 0 -3 -10 -20 -23 -37 -13 -18 -20 -37 -17 -43 3 -5 3 -10 -2
-10 -4 0 -19 -18 -32 -39 -30 -49 -37 -43 -76 61 -16 42 -31 75 -33 73 -3 -2
3 -22 12 -45 24 -60 18 -62 -10 -5 -13 28 -22 40 -20 28 4 -24 -9 -32 -17 -10
-14 33 -5 -22 9 -59 14 -37 20 -42 44 -40 23 2 30 -3 35 -23 4 -14 1 -29 -7
-35 -7 -6 -12 -10 -11 -7 1 2 -2 13 -8 25 -10 20 -10 20 5 2 9 -11 16 -15 16
-10 0 14 -22 34 -36 34 -10 0 -10 -8 -2 -32 19 -62 18 -73 -2 -33 -26 53 -15
8 15 -58 14 -31 24 -44 25 -32 0 14 3 16 8 7 6 -8 26 21 61 87 29 55 56 103
61 106 5 3 -18 -46 -51 -110 -33 -63 -58 -115 -56 -115 5 0 51 85 180 330 21
41 47 89 57 105 47 81 161 307 151 301 -16 -10 -14 -1 9 44 25 48 25 46 0 53
-17 4 -25 -3 -42 -39z m-25 -162 c-46 -83 -70 -109 -70 -76 0 8 6 13 12 10 12
-4 73 109 67 127 -1 4 3 5 9 1 7 -4 10 -2 7 7 -3 8 -12 13 -19 11 -8 -2 -6 4
6 16 16 16 22 17 28 5 5 -9 -9 -44 -40 -101z m-17 69 c-1 -16 -4 -27 -7 -25
-11 6 -31 -24 -33 -50 0 -13 -4 -22 -8 -20 -3 2 -27 -37 -53 -87 -26 -50 -49
-88 -52 -86 -4 5 145 296 153 297 1 0 1 -13 0 -29z m-72 -238 c-20 -38 -37
-69 -38 -70 -1 -2 -11 4 -22 12 -19 15 -19 15 1 13 12 -2 19 2 17 10 -1 8 2
11 9 6 9 -5 10 -2 5 12 -4 10 -4 15 0 11 4 -4 18 11 31 33 39 65 37 46 -3 -27z
m-57 -102 c-19 -43 -62 -119 -65 -116 -3 2 -1 12 3 22 5 10 7 22 6 27 -1 5 7
15 19 23 11 8 20 19 20 25 0 6 -7 5 -17 -3 -15 -13 -15 -12 -3 7 11 18 44 31
37 15z m-187 -306 c0 -6 -7 -12 -15 -12 -16 0 -28 24 -19 38 7 12 34 -8 34
-26z"/>
<path d="M1927 5997 c-2 -6 1 -26 6 -44 8 -26 13 -30 24 -22 19 17 16 57 -6
69 -14 7 -21 6 -24 -3z"/>
<path d="M5465 5969 c-9 -17 -15 -33 -13 -35 3 -2 12 12 21 31 21 43 13 47 -8
4z"/>
<path d="M1981 5983 c-1 -6 4 -24 9 -39 10 -24 9 -26 -10 -21 -22 6 -43 -24
-22 -31 6 -2 8 -10 5 -19 -4 -10 -2 -14 5 -9 6 3 14 1 18 -5 4 -8 3 -9 -4 -5
-8 5 -12 -1 -13 -16 0 -14 -10 4 -24 42 -13 36 -24 60 -24 55 -1 -6 13 -49 29
-95 17 -47 28 -71 26 -55 l-5 30 14 -30 14 -30 1 35 c0 24 3 31 9 21 6 -9 3
-33 -5 -63 -11 -35 -12 -53 -4 -66 8 -14 9 -12 4 9 -3 15 -2 29 3 32 5 3 9 -4
9 -16 -1 -12 4 -21 10 -20 7 1 11 -3 11 -10 -1 -35 5 -47 22 -47 11 0 22 6 24
13 3 6 6 2 6 -10 1 -13 -2 -22 -6 -22 -40 6 -43 -19 -8 -79 13 -23 20 -40 14
-37 -6 4 -8 -4 -4 -22 3 -15 -13 22 -34 82 -22 61 -40 105 -40 100 -1 -6 22
-76 49 -155 43 -125 56 -153 34 -72 -5 17 -2 22 12 21 11 0 14 -3 7 -6 -7 -2
-13 -9 -13 -14 0 -6 4 -7 10 -4 5 3 7 0 5 -7 -6 -16 49 -181 58 -172 3 3 3 -3
0 -15 -3 -12 -1 -21 4 -21 13 0 13 32 0 48 -6 8 -6 16 1 25 7 8 7 18 2 27 -7
11 -10 12 -10 2 0 -7 -5 -10 -10 -7 -7 4 -7 12 0 25 14 26 13 43 -2 34 -7 -4
-10 -4 -6 1 4 4 3 14 -2 20 -7 9 -7 21 0 39 12 34 13 46 0 26 -7 -12 -10 -11
-15 5 -4 11 -13 32 -21 48 -8 15 -13 31 -10 36 3 5 -4 11 -15 14 -13 4 -18 10
-14 17 6 9 10 9 17 -1 5 -9 6 -4 2 14 -12 51 5 27 22 -30 10 -32 19 -53 20
-48 2 6 -21 82 -50 170 -30 88 -55 155 -55 149 -1 -6 8 -37 19 -69 23 -66 24
-75 10 -75 -5 0 -10 11 -10 24 0 16 -7 27 -20 31 -16 5 -18 10 -9 26 8 15 5
34 -11 81 -20 58 -21 97 -1 47 5 -13 10 -17 10 -9 -1 19 -37 119 -38 103z m99
-323 c0 -5 -4 -10 -10 -10 -5 0 -10 5 -10 10 0 6 5 10 10 10 6 0 10 -4 10 -10z
m40 -185 c0 -8 -4 -15 -10 -15 -5 0 -7 7 -4 15 4 8 8 15 10 15 2 0 4 -7 4 -15z"/>
<path d="M2931 5989 c-1 -4 6 -26 14 -49 17 -49 18 -53 6 -46 -17 11 -31 -42
-20 -74 20 -57 38 -25 34 60 -2 37 -31 130 -34 109z"/>
<path d="M4010 5927 c0 -5 81 -211 84 -215 2 -1 3 11 2 27 -1 16 -4 27 -7 25
-3 -2 -20 35 -38 81 -27 71 -41 99 -41 82z"/>
<path d="M5416 5854 c-15 -36 -25 -68 -23 -70 2 -2 16 26 30 63 15 37 25 68
23 70 -2 2 -16 -26 -30 -63z"/>
<path d="M2981 5843 c-1 -6 -4 -20 -7 -30 -4 -13 -3 -14 4 -5 7 11 11 8 15
-10 10 -34 9 -38 -9 -38 -10 0 -14 6 -11 14 4 10 1 13 -8 9 -8 -3 -13 -9 -10
-13 3 -5 1 -11 -3 -14 -5 -3 -15 13 -22 34 -7 22 -15 38 -17 36 -2 -2 10 -44
27 -92 31 -89 47 -122 35 -71 -6 21 -4 27 9 27 9 0 16 -5 16 -11 0 -5 -6 -7
-12 -3 -10 6 -10 5 -1 -8 7 -8 10 -18 6 -21 -3 -4 0 -7 7 -7 7 0 11 -3 7 -6
-3 -3 -1 -19 5 -36 8 -21 13 -26 19 -17 4 8 3 20 -4 28 -9 12 -9 13 1 7 17
-10 15 15 -4 63 -19 47 -43 61 -52 29 -5 -21 -6 -21 -13 -2 -11 28 -10 44 2
44 5 0 7 -4 4 -10 -3 -5 -1 -10 4 -10 6 0 11 6 11 13 0 8 3 8 9 -2 7 -11 10
-10 13 5 3 13 10 1 22 -34 10 -29 20 -51 22 -49 2 2 -11 46 -30 98 -19 52 -35
89 -35 82z"/>
<path d="M4120 5845 c0 -5 5 -17 10 -25 5 -8 10 -10 10 -5 0 6 -5 17 -10 25
-5 8 -10 11 -10 5z"/>
<path d="M5246 5825 c-3 -9 -6 -22 -5 -28 0 -7 5 -1 10 12 5 13 8 26 5 28 -2
2 -6 -3 -10 -12z"/>
<path d="M4095 5790 c-3 -6 1 -13 10 -16 11 -5 13 -9 6 -14 -8 -4 -5 -24 8
-63 22 -64 40 -99 41 -79 0 7 5 10 10 7 7 -4 7 -12 0 -25 -6 -11 -6 -21 -1
-25 5 -3 12 3 14 12 4 17 5 17 6 1 0 -10 6 -18 11 -18 13 0 13 -4 -10 60 -11
30 -20 56 -20 58 0 2 -4 1 -9 -3 -5 -3 -13 0 -17 6 -4 8 -3 9 4 5 17 -10 15
12 -5 61 -17 42 -35 54 -48 33z"/>
<path d="M4146 5780 c4 -14 15 -43 25 -65 11 -22 16 -29 13 -15 -4 14 -15 43
-25 65 -11 22 -16 29 -13 15z"/>
<path d="M4692 5734 c-18 -35 -32 -68 -32 -72 1 -4 17 24 36 62 19 37 34 70
32 72 -2 2 -18 -26 -36 -62z"/>
<path d="M5216 5729 c-19 -69 -30 -125 -23 -119 7 7 46 164 42 169 -2 2 -11
-21 -19 -50z"/>
<path d="M6129 5733 c-1 -5 -1 -11 0 -15 0 -5 -3 -8 -9 -8 -5 0 -10 -4 -10
-10 0 -22 26 -8 28 15 2 22 -6 37 -9 18z"/>
<path d="M5420 5670 c-6 -23 -9 -44 -7 -46 2 -3 9 14 15 38 6 23 9 44 7 46 -2
2 -9 -15 -15 -38z"/>
<path d="M4106 5680 c3 -14 11 -32 16 -40 6 -10 7 -7 2 10 -3 14 -11 32 -16
40 -6 10 -7 7 -2 -10z"/>
<path d="M5260 5650 c-7 -28 -10 -53 -8 -55 3 -3 10 18 16 47 7 28 11 53 8 55
-2 2 -9 -19 -16 -47z"/>
<path d="M4190 5667 c0 -13 103 -277 107 -274 3 4 -95 268 -103 276 -2 2 -4 1
-4 -2z"/>
<path d="M5350 5669 c0 -2 -9 -50 -20 -107 -11 -56 -19 -126 -19 -155 1 -45 3
-42 10 28 5 44 16 113 25 153 8 41 13 76 10 79 -3 4 -6 4 -6 2z"/>
<path d="M6061 5639 c-6 -18 -9 -34 -7 -36 2 -2 9 10 15 28 6 18 9 34 7 36 -2
2 -9 -10 -15 -28z"/>
<path d="M6642 5653 c-6 -10 -12 -34 -15 -53 -5 -27 -3 -24 9 13 l15 47 793 0
793 0 -5 -30 c-2 -16 -8 -30 -12 -30 -4 0 -5 11 -2 25 4 25 3 25 -62 25 -40 0
-66 -4 -66 -11 0 -6 -5 -7 -12 -2 -20 12 -88 10 -88 -2 0 -15 63 -15 72 -1 5
8 8 7 8 -1 0 -16 52 -17 66 -3 7 7 11 6 11 -5 0 -13 -57 -15 -495 -15 -273 0
-493 2 -491 4 3 3 60 6 127 7 68 2 126 7 129 13 3 5 2 6 -4 3 -6 -4 -24 -3
-40 2 -17 5 -36 5 -44 0 -8 -4 -16 -4 -20 3 -4 7 -13 7 -28 -1 -11 -7 -21 -8
-21 -3 0 5 -36 9 -79 9 -54 -1 -78 -4 -73 -11 3 -6 -2 -5 -11 3 -13 10 -17 10
-17 1 0 -10 -3 -10 -15 0 -8 6 -19 9 -25 5 -24 -15 -6 -24 53 -27 34 -2 -40
-6 -165 -8 -202 -5 -226 -3 -225 11 0 9 7 16 14 16 6 0 10 -4 7 -9 -3 -4 13
-8 35 -8 51 0 53 15 4 24 -81 13 -100 9 -112 -25 -14 -40 -14 -42 2 -33 6 4 4
-2 -6 -13 -10 -12 -17 -27 -16 -35 1 -7 -3 -26 -10 -43 -7 -16 -10 -40 -8 -52
2 -12 1 -20 -3 -18 -10 6 -23 -62 -15 -75 3 -5 -4 -19 -16 -31 l-22 -22 7 24
c20 69 56 224 54 231 -2 4 -27 -85 -56 -198 -29 -113 -51 -208 -49 -211 3 -2
14 31 26 74 13 51 19 63 16 36 -3 -24 -1 -43 4 -43 10 0 25 30 22 43 -1 5 3 6
9 2 5 -3 10 2 11 12 0 10 7 36 14 58 l14 40 -5 -40 c-3 -32 0 -27 16 25 21 69
20 90 -5 90 -9 0 -13 5 -10 10 4 6 10 8 15 5 5 -3 8 7 7 21 -1 15 4 29 11 31
6 3 12 -4 13 -14 0 -11 3 -13 6 -5 3 7 1 18 -5 25 -6 8 -4 22 5 42 l13 30 -4
-35 c-5 -35 -5 -35 8 5 l13 40 721 3 c397 1 722 -1 722 -5 0 -5 4 -25 9 -45 5
-21 6 -36 2 -34 -10 7 -45 -149 -38 -173 3 -12 1 -19 -4 -15 -5 3 -9 -3 -9
-13 0 -10 -7 -36 -15 -58 -21 -58 -19 -84 5 -82 11 1 20 8 20 16 0 8 3 12 6 8
7 -7 -36 -198 -48 -214 -5 -7 -7 -17 -3 -22 4 -7 0 -8 -10 -5 -14 6 -14 8 0
24 9 10 17 34 19 54 2 20 6 39 10 43 13 13 5 41 -12 45 -16 5 -21 -4 -31 -58
-7 -34 -10 -68 -5 -75 4 -7 3 -10 -3 -6 -6 4 -13 -7 -17 -24 -9 -45 -7 -56 5
-39 7 10 9 11 7 2 -2 -8 -8 -13 -13 -12 -5 1 -12 -7 -16 -17 -11 -27 -10 -83
1 -83 6 0 10 5 10 11 0 5 4 8 9 5 5 -4 7 3 4 14 -3 11 -1 20 5 20 14 0 22 62
10 78 -8 9 -6 12 7 12 15 0 16 -7 11 -47 -9 -75 0 -44 58 212 31 134 53 253
50 270 -3 21 -2 24 4 12 5 -12 8 5 7 45 0 36 5 71 12 83 7 11 13 30 13 42 0
14 6 23 15 23 9 0 15 9 15 24 0 13 3 31 6 40 6 15 -69 16 -795 16 -752 0 -801
-1 -809 -17z m5 -245 c-3 -8 -6 -5 -6 6 -1 11 2 17 5 13 3 -3 4 -12 1 -19z
m1505 -129 c-17 -65 -19 -70 -24 -41 -2 17 -2 32 1 32 11 0 32 81 25 93 -5 9
-4 9 5 1 8 -8 7 -29 -7 -85z"/>
<path d="M3056 5630 c4 -14 13 -38 20 -55 11 -24 13 -25 8 -5 -4 14 -13 39
-20 55 -11 24 -13 25 -8 5z"/>
<path d="M6828 5642 c-10 -2 -18 -7 -18 -12 0 -11 64 -8 72 5 5 7 8 6 8 -1 0
-11 52 -10 71 1 5 4 9 1 9 -6 0 -8 4 -8 15 1 11 9 15 9 15 1 0 -7 5 -9 10 -6
6 3 10 11 10 16 0 12 -138 10 -146 -3 -3 -5 -11 -5 -17 0 -7 5 -20 7 -29 4z"/>
<path d="M7540 5643 c0 -5 -18 -7 -39 -5 -22 2 -48 -1 -58 -7 -13 -8 22 -10
135 -9 142 1 201 10 132 20 -16 2 -27 1 -24 -4 3 -4 -2 -8 -11 -8 -9 0 -13 5
-9 11 5 8 1 8 -14 0 -15 -8 -21 -8 -25 2 -3 8 -8 9 -18 2 -16 -12 -39 -13 -56
-2 -7 5 -13 4 -13 0z"/>
<path d="M7765 5640 c3 -4 -1 -11 -7 -13 -7 -3 1 -6 18 -6 16 -1 35 4 42 11 7
7 12 8 12 2 0 -5 9 -10 20 -11 13 -1 20 4 19 15 0 10 -3 12 -6 5 -3 -9 -10
-10 -21 -4 -22 11 -84 12 -77 1z"/>
<path d="M7891 5641 c-9 -6 -6 -10 11 -14 37 -11 48 -8 47 11 0 10 -3 12 -6 5
-3 -9 -10 -10 -22 -4 -9 5 -23 6 -30 2z"/>
<path d="M7960 5636 c0 -9 5 -16 10 -16 6 0 10 4 10 9 0 6 -4 13 -10 16 -5 3
-10 -1 -10 -9z"/>
<path d="M2985 5610 c16 -50 54 -145 55 -134 0 13 -49 146 -57 154 -3 3 -2 -6
2 -20z"/>
<path d="M4606 5554 c-48 -102 -45 -109 5 -10 22 43 38 80 36 82 -2 3 -21 -30
-41 -72z"/>
<path d="M4136 5600 c3 -14 11 -32 16 -40 6 -10 7 -7 2 10 -3 14 -11 32 -16
40 -6 10 -7 7 -2 -10z"/>
<path d="M5395 5570 c-4 -23 -5 -43 -2 -46 2 -3 7 14 11 37 4 23 5 44 2 46 -2
2 -7 -14 -11 -37z"/>
<path d="M5182 5580 c0 -14 2 -19 5 -12 2 6 2 18 0 25 -3 6 -5 1 -5 -13z"/>
<path d="M3050 5580 c0 -8 5 -22 10 -30 9 -13 10 -13 10 0 0 8 -5 22 -10 30
-9 13 -10 13 -10 0z"/>
<path d="M6041 5574 c0 -11 3 -14 6 -6 3 7 2 16 -1 19 -3 4 -6 -2 -5 -13z"/>
<path d="M6110 5540 c-7 -28 -10 -53 -8 -55 3 -3 10 18 16 47 7 28 11 53 8 55
-2 2 -9 -19 -16 -47z"/>
<path d="M5242 5560 c0 -14 2 -19 5 -12 2 6 2 18 0 25 -3 6 -5 1 -5 -13z"/>
<path d="M8221 5564 c0 -11 3 -14 6 -6 3 7 2 16 -1 19 -3 4 -6 -2 -5 -13z"/>
<path d="M8141 5544 c0 -11 3 -14 6 -6 3 7 2 16 -1 19 -3 4 -6 -2 -5 -13z"/>
<path d="M5172 5520 c0 -19 2 -27 5 -17 2 9 2 25 0 35 -3 9 -5 1 -5 -18z"/>
<path d="M6026 5518 c-4 -18 -9 -78 -11 -133 l-4 -100 8 85 c5 47 12 106 16
133 8 53 1 65 -9 15z"/>
<path d="M4165 5525 c21 -60 48 -125 52 -122 5 5 -34 107 -48 127 -9 12 -10
11 -4 -5z"/>
<path d="M8211 5524 c0 -11 3 -14 6 -6 3 7 2 16 -1 19 -3 4 -6 -2 -5 -13z"/>
<path d="M5232 5500 c0 -19 2 -27 5 -17 2 9 2 25 0 35 -3 9 -5 1 -5 -18z"/>
<path d="M8121 5464 c-7 -30 -11 -57 -8 -60 2 -2 9 21 16 52 7 30 11 57 8 60
-2 2 -9 -21 -16 -52z"/>
<path d="M6046 5492 c-4 -8 -9 -103 -7 -139 0 -13 7 -23 16 -23 16 0 21 -35 6
-45 -6 -3 -8 4 -6 15 2 11 0 20 -6 20 -5 0 -9 -14 -9 -31 0 -18 4 -28 10 -24
13 8 8 -18 -5 -27 -6 -5 -6 -8 1 -8 7 0 9 -11 6 -26 -4 -20 -2 -25 8 -19 10 6
11 2 7 -16 -7 -28 6 -58 17 -40 4 6 12 8 18 5 7 -4 8 -2 4 5 -4 6 -12 8 -18 5
-8 -5 -9 6 -5 35 4 32 1 43 -11 51 -10 5 -12 10 -7 10 16 0 18 192 3 201 -6 4
-12 16 -13 27 -1 15 3 18 19 14 12 -3 17 -1 13 3 -10 11 -36 15 -41 7z"/>
<path d="M8196 5464 c-4 -20 -5 -38 -3 -40 3 -3 8 11 11 32 4 20 5 38 3 40 -3
3 -8 -11 -11 -32z"/>
<path d="M5156 5419 c-3 -34 -5 -112 -4 -173 1 -104 2 -101 9 59 8 175 7 220
-5 114z"/>
<path d="M6092 5360 c0 -63 3 -126 7 -140 7 -24 3 209 -3 240 -2 8 -4 -37 -4
-100z"/>
<path d="M6661 5454 c0 -11 3 -14 6 -6 3 7 2 16 -1 19 -3 4 -6 -2 -5 -13z"/>
<path d="M3041 5455 c0 -5 9 -28 20 -50 10 -22 16 -29 13 -15 -7 28 -33 80
-33 65z"/>
<path d="M2156 5415 c-9 -26 -7 -32 5 -12 6 10 9 21 6 23 -2 3 -7 -2 -11 -11z"/>
<path d="M2174 5366 c1 -19 4 -32 8 -30 11 7 20 -34 13 -58 -4 -16 -3 -19 3
-10 7 11 12 6 21 -19 14 -39 14 -49 1 -49 -5 0 -9 3 -9 8 1 4 1 16 0 27 -1 14
-4 16 -9 7 -13 -20 -2 -72 16 -72 14 0 14 -2 -1 -13 -16 -11 -16 -15 -1 -60 9
-26 14 -50 12 -53 -3 -2 -10 14 -17 37 -7 22 -14 39 -16 37 -3 -2 3 -28 12
-56 l17 -52 11 27 12 28 0 -33 c0 -19 6 -38 14 -43 8 -5 10 -9 5 -9 -5 0 -3
-6 3 -13 6 -8 8 -16 6 -19 -3 -3 2 -5 12 -5 10 0 23 -1 30 -2 6 0 21 -31 33
-67 12 -36 24 -63 26 -61 2 2 -14 57 -37 121 -23 64 -44 114 -47 112 -2 -3 3
-23 12 -46 13 -33 13 -40 2 -40 -8 0 -14 6 -13 13 1 28 -3 47 -10 46 -27 -4
-33 2 -23 20 13 26 13 31 -5 31 -8 0 -15 8 -15 18 0 14 2 15 10 2 8 -13 10
-13 10 1 0 9 -10 21 -22 28 -13 6 -15 9 -5 7 25 -8 21 3 -5 14 -18 7 -19 9 -5
9 14 1 16 7 11 29 -4 22 -3 24 6 12 11 -13 11 -13 7 0 -14 48 -69 210 -71 210
-1 0 -2 -15 -2 -34z"/>
<path d="M8096 5354 c-4 -20 -5 -38 -3 -40 3 -3 8 11 11 32 4 20 5 38 3 40 -3
3 -8 -11 -11 -32z"/>
<path d="M2116 5328 c19 -61 43 -122 43 -112 1 14 -40 134 -46 134 -2 0 -1
-10 3 -22z"/>
<path d="M5303 5280 c0 -36 2 -50 4 -32 2 17 2 47 0 65 -2 17 -4 3 -4 -33z"/>
<path d="M8066 5224 c-10 -41 -16 -77 -14 -80 3 -2 12 30 22 72 10 41 16 77
14 80 -3 2 -12 -30 -22 -72z"/>
<path d="M6023 5245 c0 -22 2 -30 4 -17 2 12 2 30 0 40 -3 9 -5 -1 -4 -23z"/>
<path d="M6611 5264 c0 -11 3 -14 6 -6 3 7 2 16 -1 19 -3 4 -6 -2 -5 -13z"/>
<path d="M6600 5224 c0 -15 -2 -16 -9 -5 -7 11 -10 9 -15 -7 -4 -12 -13 -19
-20 -16 -16 6 -42 -88 -30 -107 4 -8 3 -9 -4 -5 -7 4 -12 1 -12 -8 0 -15 12
-21 33 -17 5 1 6 -3 2 -9 -3 -5 -17 -10 -31 -10 -19 0 -24 4 -20 18 3 9 8 31
11 47 7 41 -10 3 -19 -42 l-8 -33 219 0 c130 0 212 4 204 9 -8 5 -11 16 -8 25
4 10 1 16 -8 16 -8 0 -15 -4 -15 -10 0 -5 -5 -10 -11 -10 -5 0 -7 5 -4 10 9
14 -8 12 -24 -2 -11 -10 -13 -10 -7 0 9 14 -20 17 -29 2 -4 -7 -12 -7 -25 0
-26 14 -70 12 -70 -2 0 -10 -2 -10 -8 -1 -8 12 -92 14 -92 3 0 -3 -9 -6 -19
-6 -15 0 -17 3 -9 13 8 10 83 13 338 13 305 0 329 -1 333 -17 4 -14 5 -12 6 5
l1 22 -335 0 -335 0 6 28 c3 15 10 44 16 66 5 21 7 41 4 44 -3 3 -6 -3 -6 -14z
m-10 -32 c0 -10 -6 -19 -14 -19 -11 0 -12 4 -3 19 7 10 13 18 14 18 2 0 3 -8
3 -18z m-13 -54 c-3 -8 -6 -5 -6 6 -1 11 2 17 5 13 3 -3 4 -12 1 -19z m117
-86 c14 3 26 1 26 -3 0 -5 -26 -9 -57 -9 -54 0 -56 1 -33 13 15 8 28 10 31 4
4 -5 19 -7 33 -5z"/>
<path d="M2166 5180 c3 -14 11 -32 16 -40 6 -10 7 -7 2 10 -3 14 -11 32 -16
40 -6 10 -7 7 -2 -10z"/>
<path d="M6031 5189 c-2 -30 40 -153 71 -209 35 -63 128 -183 136 -176 3 3 -1
12 -8 21 -10 12 -10 15 1 15 17 0 49 -20 32 -20 -16 0 -10 -25 12 -50 12 -13
21 -17 25 -10 4 7 15 4 31 -9 22 -19 16 -31 -7 -13 -5 4 0 -1 11 -12 68 -63
272 -124 347 -104 27 7 34 18 12 19 -18 0 -18 1 1 10 14 6 7 8 -25 4 -68 -7
-70 -8 -70 -17 0 -18 -38 -7 -43 13 -5 19 -3 21 26 15 22 -4 27 -3 17 3 -8 5
-30 10 -50 10 -39 0 -109 19 -75 20 23 1 10 16 -24 26 -18 6 -22 4 -15 -6 6
-12 5 -12 -9 0 -15 12 -17 11 -17 -3 0 -14 11 -21 33 -17 4 0 7 -3 7 -8 0 -5
17 -15 38 -21 20 -6 43 -14 51 -16 8 -2 12 -7 9 -9 -7 -7 -104 28 -156 55 -24
12 -41 25 -38 27 2 3 13 0 24 -6 15 -8 21 -7 26 4 5 14 -31 48 -43 40 -4 -2
-14 10 -23 26 -20 34 -10 38 18 8 20 -22 131 -81 174 -93 14 -4 -11 10 -55 32
-44 21 -109 63 -145 93 -35 29 -71 54 -78 55 -15 3 -41 33 -42 48 0 6 9 0 20
-12 12 -12 24 -22 27 -22 4 0 -4 11 -17 25 -12 13 -33 41 -46 62 -13 21 -24
34 -24 30 0 -4 8 -19 17 -33 14 -22 14 -27 2 -35 -10 -6 -10 -9 -1 -9 6 0 12
-5 12 -12 0 -6 -9 -3 -21 8 -11 10 -16 20 -10 22 16 5 14 16 -10 40 -18 20
-19 49 -1 38 4 -2 -4 30 -18 73 -14 43 -26 73 -28 67 -1 -6 7 -38 18 -70 11
-33 18 -61 15 -64 -2 -3 -8 4 -12 14 -9 22 -33 30 -33 11 0 -7 6 -19 13 -26
10 -11 10 -13 0 -7 -7 4 -13 2 -13 -3 0 -6 5 -11 11 -11 5 0 7 -4 4 -10 -4 -6
1 -7 11 -3 11 4 15 3 10 -5 -3 -6 -2 -13 3 -17 5 -3 9 -13 9 -23 0 -9 3 -26 7
-37 15 -38 -12 -2 -44 59 -20 37 -29 67 -25 80 4 17 3 18 -5 6 -9 -13 -11 -13
-11 1 0 24 10 29 32 18 16 -9 19 -8 16 7 -4 24 -23 28 -41 10 -13 -14 -17 -9
-30 42 -8 31 -15 50 -16 41z m196 -329 c15 0 16 -2 3 -10 -16 -10 -45 11 -62
45 -6 14 -2 12 16 -7 14 -16 33 -28 43 -28z m10 14 c-3 -3 -12 -4 -19 -1 -8 3
-5 6 6 6 11 1 17 -2 13 -5z m83 -51 c0 -9 -19 -1 -38 17 -34 32 -26 44 8 13
17 -14 30 -28 30 -30z m6 -24 c3 -6 2 -15 -4 -21 -6 -6 -11 -2 -15 11 -5 22 7
29 19 10z m-36 -9 c8 -5 11 -12 7 -16 -4 -4 -15 0 -24 9 -18 18 -8 23 17 7z
m377 -146 c-3 -3 -12 -4 -19 -1 -8 3 -5 6 6 6 11 1 17 -2 13 -5z m-24 -21 c-7
-2 -19 -2 -25 0 -7 3 -2 5 12 5 14 0 19 -2 13 -5z"/>
<path d="M5313 5140 c0 -30 2 -43 4 -27 2 15 2 39 0 55 -2 15 -4 2 -4 -28z"/>
<path d="M5373 5150 c0 -25 2 -35 4 -22 2 12 2 32 0 45 -2 12 -4 2 -4 -23z"/>
<path d="M8070 5152 c0 -12 4 -22 9 -22 10 0 9 26 -2 36 -4 4 -7 -2 -7 -14z"/>
<path d="M8097 5155 c-4 -8 -2 -17 3 -20 6 -4 10 3 10 14 0 25 -6 27 -13 6z"/>
<path d="M2261 5135 c1 -19 18 -51 18 -35 0 8 -4 22 -9 30 -5 8 -9 11 -9 5z"/>
<path d="M8036 5094 c-4 -20 -5 -38 -3 -40 3 -3 8 11 11 32 4 20 5 38 3 40 -3
3 -8 -11 -11 -32z"/>
<path d="M5163 5075 c0 -27 2 -38 4 -22 2 15 2 37 0 50 -2 12 -4 0 -4 -28z"/>
<path d="M5222 5090 c0 -19 2 -27 5 -17 2 9 2 25 0 35 -3 9 -5 1 -5 -18z"/>
<path d="M5382 5075 c0 -16 2 -22 5 -12 2 9 2 23 0 30 -3 6 -5 -1 -5 -18z"/>
<path d="M6904 5068 c-3 -4 1 -15 10 -23 11 -12 40 -15 125 -15 99 0 111 -2
112 -17 0 -15 2 -15 8 2 5 11 7 23 5 27 -3 4 0 9 5 12 14 9 6 -52 -13 -99
l-16 -40 5 35 5 35 -12 -29 c-9 -26 -8 -32 11 -47 13 -10 17 -20 11 -24 -5 -3
-10 0 -10 7 0 9 -3 9 -10 -2 -8 -12 -10 -12 -11 5 0 14 -3 11 -10 -10 -5 -18
-5 -44 1 -65 6 -19 10 -44 9 -55 l0 -20 -10 20 c-8 17 -9 16 -6 -7 3 -17 0
-25 -6 -21 -6 4 -8 0 -4 -11 4 -10 3 -15 -3 -11 -6 4 -8 23 -6 43 5 30 4 32
-3 12 -5 -14 -7 -43 -5 -65 3 -33 2 -35 -5 -15 -9 24 -9 24 -10 3 -1 -22 -3
-23 -168 -26 l-168 -3 168 -2 c92 -1 167 -6 167 -11 0 -4 -12 -6 -26 -3 -18 3
-25 1 -20 -6 4 -7 -1 -10 -14 -7 -11 2 -22 0 -25 -6 -4 -5 23 -9 64 -9 43 0
71 4 71 11 0 5 -5 7 -10 4 -15 -9 -8 18 7 30 7 5 15 24 17 40 2 17 7 38 11 48
4 9 5 26 2 37 -3 11 -2 18 3 15 4 -3 15 21 24 53 15 56 15 56 11 12 -5 -42 -4
-41 15 20 15 49 18 71 10 88 -5 13 -10 33 -9 45 0 17 4 15 15 -13 9 -22 12
-26 9 -10 -2 14 -5 33 -5 43 0 10 -4 15 -10 12 -5 -3 -10 0 -10 7 0 17 -79 21
-99 5 -12 -9 -13 -9 -7 0 5 10 -7 13 -49 12 -30 -1 -58 -6 -61 -10 -3 -5 -11
-9 -17 -9 -7 0 -6 4 3 10 13 8 12 10 -2 10 -10 0 -18 -4 -18 -10 0 -5 -5 -10
-11 -10 -5 0 -8 4 -5 8 3 5 -2 9 -10 9 -8 0 -17 -4 -20 -9z m306 -110 c0 -7
-4 -18 -8 -24 -9 -13 -42 -14 -42 -1 0 5 6 7 14 4 17 -7 30 20 13 27 -7 2 -4
5 6 5 9 1 17 -5 17 -11z m-53 -110 c-3 -8 -6 -5 -6 6 -1 11 2 17 5 13 3 -3 4
-12 1 -19z m-50 -170 c-3 -8 -6 -5 -6 6 -1 11 2 17 5 13 3 -3 4 -12 1 -19z"/>
<path d="M7231 5034 c0 -11 3 -14 6 -6 3 7 2 16 -1 19 -3 4 -6 -2 -5 -13z"/>
<path d="M5232 5020 c0 -14 2 -19 5 -12 2 6 2 18 0 25 -3 6 -5 1 -5 -13z"/>
<path d="M8006 4964 c-10 -41 -16 -77 -14 -80 3 -2 12 30 22 72 10 41 16 77
14 80 -3 2 -12 -30 -22 -72z"/>
<path d="M5392 5010 c0 -14 2 -19 5 -12 2 6 2 18 0 25 -3 6 -5 1 -5 -13z"/>
<path d="M5171 5005 c0 -11 6 -42 13 -70 18 -65 19 -37 1 35 -7 30 -14 46 -14
35z"/>
<path d="M5060 5008 c0 -3 -7 -22 -16 -43 -10 -25 -11 -34 -3 -29 9 5 10 2 6
-10 -4 -10 -7 -21 -7 -24 0 -4 -4 -1 -9 6 -7 11 -9 10 -14 -3 -4 -9 -3 -13 2
-10 5 3 12 1 16 -5 3 -5 1 -10 -4 -10 -18 0 -12 -18 7 -23 16 -4 16 -5 0 -6
-12 -1 -15 -6 -11 -18 5 -12 2 -15 -10 -10 -12 4 -20 -3 -31 -26 -32 -71 -28
-89 13 -63 10 7 12 3 7 -15 -4 -13 10 8 30 46 48 91 68 138 55 130 -6 -3 -11
1 -11 9 0 9 -5 16 -11 16 -6 0 -8 7 -5 16 3 8 2 12 -4 9 -13 -8 -13 11 1 37 6
11 8 22 5 26 -3 3 -6 3 -6 0z m4 -130 c-4 -7 -3 -8 4 -4 16 10 14 -4 -6 -39
-9 -16 -24 -31 -32 -33 -10 -2 -6 6 9 22 17 18 22 29 14 37 -5 5 -8 22 -5 36
4 21 6 23 14 9 5 -9 6 -21 2 -28z m-36 -113 c-6 -14 -13 -23 -15 -21 -5 5 15
46 22 46 3 0 -1 -11 -7 -25z"/>
<path d="M5332 4995 c0 -11 4 -31 8 -45 6 -20 8 -21 8 -5 0 11 -4 31 -8 45 -6
20 -8 21 -8 5z"/>
<path d="M2232 4988 c3 -7 13 -37 23 -66 9 -29 19 -52 21 -49 5 5 -36 127 -43
127 -3 0 -3 -6 -1 -12z"/>
<path d="M5242 4970 c0 -14 2 -19 5 -12 2 6 2 18 0 25 -3 6 -5 1 -5 -13z"/>
<path d="M5402 4960 c0 -14 2 -19 5 -12 2 6 2 18 0 25 -3 6 -5 1 -5 -13z"/>
<path d="M5090 4931 c0 -6 4 -13 10 -16 6 -3 7 1 4 9 -7 18 -14 21 -14 7z"/>
<path d="M5252 4925 c0 -21 25 -107 27 -90 0 6 -6 33 -13 60 -8 28 -14 41 -14
30z"/>
<path d="M2280 4924 c0 -3 10 -14 23 -25 12 -10 17 -18 10 -19 -6 0 -14 6 -16
13 -3 7 -6 5 -6 -5 -1 -10 3 -18 9 -18 5 0 7 -7 3 -16 -5 -13 -8 -13 -15 -2
-12 17 1 -31 14 -52 7 -11 8 -10 3 6 -3 12 1 34 10 50 l15 29 1 -25 c1 -14 1
-34 0 -45 -1 -18 0 -18 9 3 6 15 6 31 -2 50 -13 30 -15 37 -17 52 -1 10 -41
14 -41 4z"/>
<path d="M5411 4920 c0 -8 4 -24 9 -35 5 -13 9 -14 9 -5 0 8 -4 24 -9 35 -5
13 -9 14 -9 5z"/>
<path d="M3619 4898 c-54 -100 -79 -152 -75 -156 3 -2 21 30 42 72 20 42 39
75 41 72 3 -2 -3 -21 -12 -40 -17 -35 -17 -38 1 -59 15 -17 15 -19 2 -8 -20
15 -44 5 -30 -12 5 -7 12 -22 14 -34 4 -16 2 -20 -8 -16 -8 3 -14 14 -14 25 0
11 -4 16 -11 13 -6 -4 -8 -14 -5 -22 3 -8 2 -12 -3 -9 -4 3 -13 -6 -20 -20 -6
-14 -15 -23 -19 -20 -5 3 -6 -8 -4 -25 3 -18 0 -29 -7 -29 -7 0 -9 -6 -5 -12
5 -10 4 -10 -6 -1 -11 10 -11 15 0 28 7 8 10 18 7 21 -3 3 -53 -90 -112 -206
-59 -117 -102 -209 -96 -205 6 3 11 -1 11 -9 0 -8 -4 -18 -10 -21 -16 -10 -12
-35 5 -29 8 4 12 10 9 15 -3 5 0 9 5 9 6 0 11 -4 11 -8 0 -5 6 -9 14 -9 8 0
12 6 9 14 -3 8 0 13 7 11 6 -2 66 105 138 249 128 254 150 290 159 265 4 -10
11 -5 24 15 21 30 25 25 8 -10 -9 -20 -9 -21 5 -4 14 18 15 17 21 -3 4 -12 9
-20 11 -17 2 2 -7 28 -21 58 -14 30 -23 44 -19 32 9 -39 -3 -25 -30 33 -31 64
-28 86 3 27 24 -46 28 -38 4 12 -19 41 -28 43 -44 13z m-42 -245 c-48 -101
-52 -106 -67 -88 -12 14 -12 18 0 25 8 5 17 7 20 5 4 -2 18 21 33 51 15 29 29
54 31 54 3 0 -5 -21 -17 -47z m-91 -69 c-2 -14 -7 -29 -12 -32 -10 -8 -37 -52
-59 -101 -9 -18 -19 -31 -22 -28 -4 5 87 187 94 187 1 0 0 -12 -1 -26z m22
-69 c-6 -14 -13 -23 -15 -21 -3 2 0 13 6 24 6 11 7 23 3 27 -4 5 -2 5 5 1 9
-5 10 -13 1 -31z m-80 -159 c-37 -73 -67 -122 -74 -119 -6 2 -17 14 -23 26
-11 21 -11 21 -6 -3 5 -21 4 -22 -5 -8 -8 14 -5 29 15 68 14 27 30 50 36 50 6
0 5 -9 -3 -22 -7 -13 -11 -27 -10 -31 1 -5 -2 -6 -7 -3 -5 3 -11 -1 -15 -9 -3
-8 -1 -15 5 -15 6 0 8 -3 6 -7 -3 -5 1 -14 9 -21 12 -11 14 -10 16 5 0 10 2
25 2 33 1 8 7 14 14 13 7 -2 12 4 12 13 0 9 9 27 20 41 14 18 17 29 10 38 -7
9 -6 16 5 25 8 7 15 9 15 4 1 -5 8 3 16 19 8 15 17 27 19 27 3 0 -23 -56 -57
-124z m-46 32 c-7 -7 -12 -8 -12 -2 0 6 3 14 7 17 3 4 9 5 12 2 2 -3 -1 -11
-7 -17z m38 -2 c0 -2 -8 -10 -17 -17 -16 -13 -17 -12 -4 4 13 16 21 21 21 13z"/>
<path d="M3515 4580 c-3 -5 -1 -10 4 -10 6 0 11 5 11 10 0 6 -2 10 -4 10 -3 0
-8 -4 -11 -10z"/>
<path d="M3435 4420 c-3 -5 -1 -10 4 -10 6 0 11 5 11 10 0 6 -2 10 -4 10 -3 0
-8 -4 -11 -10z"/>
<path d="M5351 4904 c0 -11 3 -14 6 -6 3 7 2 16 -1 19 -3 4 -6 -2 -5 -13z"/>
<path d="M5231 4881 c-9 -6 -10 -11 -2 -15 6 -4 8 -12 5 -18 -4 -7 -2 -8 4 -4
8 5 10 -2 6 -24 -4 -18 -2 -30 4 -30 16 0 28 23 14 28 -6 2 -9 9 -6 16 8 22
-10 56 -25 47z"/>
<path d="M5390 4880 c-13 -8 -12 -11 5 -24 11 -9 15 -16 8 -16 -8 0 -9 -9 -2
-32 17 -61 8 -53 -16 12 -13 36 -24 60 -24 53 -1 -7 13 -51 30 -98 22 -60 34
-83 40 -73 6 10 9 10 9 1 0 -7 5 -13 11 -13 8 0 8 5 -1 15 -7 8 -16 12 -21 9
-5 -3 -9 -1 -9 5 0 5 -3 17 -6 25 -4 12 -2 15 9 10 8 -3 18 -1 21 5 8 12 -14
61 -26 61 -5 0 -7 4 -4 8 3 5 2 21 -2 35 -5 20 -11 24 -22 17z"/>
<path d="M4912 4693 c-51 -102 -91 -187 -89 -189 2 -2 28 45 57 106 30 60 55
108 58 106 2 -2 -4 -18 -12 -35 -20 -37 -20 -42 -1 -35 8 4 15 3 15 0 0 -4
-10 -11 -22 -16 -19 -7 -19 -9 -5 -9 10 -1 16 -5 12 -11 -3 -5 -12 -7 -19 -4
-15 6 -30 -22 -20 -37 3 -5 0 -8 -6 -7 -6 2 -20 -19 -32 -45 -17 -38 -19 -50
-9 -57 9 -5 10 -10 2 -14 -6 -4 -11 -2 -11 4 0 6 -5 8 -10 5 -6 -4 -8 -16 -4
-27 4 -14 2 -18 -5 -14 -15 10 -14 -7 2 -24 10 -12 9 -12 -4 -2 -9 6 -20 8
-24 4 -5 -4 -5 1 -2 11 20 52 14 43 -29 -38 -61 -117 -79 -159 -63 -149 9 5
10 2 5 -12 -5 -10 -13 -32 -19 -49 -6 -16 -17 -36 -24 -44 -8 -7 -12 -20 -9
-27 3 -8 1 -14 -5 -14 -14 0 -52 -88 -43 -102 4 -6 3 -8 -4 -4 -6 3 -15 -2
-21 -11 -6 -10 -11 -15 -11 -10 0 4 23 52 50 107 28 55 50 103 49 107 0 5 -22
-36 -50 -89 l-49 -98 -259 0 c-257 0 -258 0 -270 23 -10 20 -11 20 -6 1 4 -14
0 -21 -9 -21 -8 0 -13 8 -11 18 2 10 1 18 -3 18 -22 -3 -33 3 -29 15 3 8 -1
17 -9 20 -12 5 -14 1 -8 -17 14 -47 35 -92 47 -99 7 -4 141 -8 298 -8 254 0
288 2 293 16 3 9 12 14 20 11 9 -4 19 5 26 24 7 16 16 26 21 23 5 -3 6 1 3 9
-3 8 6 40 20 71 14 31 22 64 19 73 -5 12 -3 14 8 8 12 -7 12 -6 1 7 -10 13
-10 17 3 22 9 3 13 2 10 -4 -3 -6 -4 -10 -1 -10 5 0 76 137 76 146 0 2 -6 4
-13 4 -7 0 -12 15 -13 38 0 20 1 31 3 24 3 -6 10 -9 15 -6 7 4 8 2 4 -4 -4 -7
-2 -20 4 -29 10 -16 11 -16 6 2 -6 19 -5 19 8 3 12 -16 18 -8 61 80 57 116 77
162 71 162 -3 0 -17 -27 -32 -60 -15 -34 -31 -57 -37 -53 -5 3 -7 1 -4 -4 7
-11 -42 -128 -50 -120 -2 3 6 27 19 53 13 27 23 60 23 74 0 15 5 24 13 22 7
-1 24 24 39 58 15 35 29 56 33 50 5 -8 9 -7 13 4 4 9 1 15 -5 13 -18 -4 -17
32 1 46 24 17 38 41 20 35 -8 -3 -20 1 -27 8 -10 11 -6 26 23 85 20 39 35 73
33 75 -2 1 -45 -80 -96 -183z m-151 -355 c-6 -15 -6 -29 -1 -34 5 -5 5 -15 -1
-24 -9 -13 -10 -12 -5 3 8 25 -9 21 -21 -6 -8 -17 -8 -26 1 -33 6 -5 9 -8 7
-7 -2 1 -12 -2 -22 -8 -26 -13 -24 -4 13 73 32 65 48 86 29 36z m-236 -386
c-16 -2 -33 -9 -37 -15 -6 -9 -8 -9 -8 1 0 7 -14 12 -35 12 -21 0 -35 -5 -36
-12 0 -10 -2 -10 -6 0 -2 6 -20 12 -39 12 -21 0 -33 -4 -29 -10 3 -5 1 -10 -4
-10 -6 0 -11 5 -11 11 0 7 -50 10 -160 7 -109 -2 -156 0 -147 7 9 6 111 8 278
6 145 -2 251 -6 234 -9z"/>
<path d="M5202 4870 c0 -8 6 -31 13 -50 7 -19 13 -28 13 -20 0 8 -6 31 -13 50
-7 19 -13 28 -13 20z"/>
<path d="M7976 4834 c-4 -20 -5 -38 -3 -40 3 -3 8 11 11 32 4 20 5 38 3 40 -3
3 -8 -11 -11 -32z"/>
<path d="M5430 4854 c0 -13 45 -124 71 -176 17 -32 17 -38 4 -38 -8 0 -16 5
-16 10 -1 6 -3 15 -4 20 -1 6 -3 13 -4 17 0 4 -6 2 -13 -5 -8 -8 -8 -15 3 -28
8 -9 13 -19 12 -21 -7 -9 -2 -23 8 -20 6 1 13 -3 16 -10 10 -27 -31 -3 -48 28
-10 19 -18 29 -19 23 0 -15 87 -158 143 -236 63 -86 95 -120 107 -113 5 3 23
-9 41 -27 19 -21 39 -32 53 -31 20 3 20 2 1 -6 -16 -7 -28 -1 -57 27 -21 20
-38 31 -38 25 0 -31 230 -208 347 -267 59 -30 86 -35 33 -6 -29 15 -32 20 -17
25 9 4 17 13 17 21 0 13 -5 15 -38 18 -7 1 -17 7 -21 15 -6 9 -16 11 -32 6
-22 -7 -22 -7 -6 9 14 14 21 15 39 5 35 -18 20 -6 -57 47 -38 26 -64 40 -56
31 7 -10 9 -17 3 -17 -12 0 -34 25 -27 31 2 3 -29 35 -70 72 -131 119 -265
315 -341 500 -18 45 -33 77 -34 71z m162 -328 c26 -39 57 -84 70 -101 12 -16
17 -26 11 -22 -7 4 -13 0 -16 -10 -3 -11 -5 -8 -6 10 0 15 -5 27 -11 27 -5 0
-9 4 -7 9 3 13 -44 52 -55 45 -12 -8 -5 -29 10 -29 7 0 12 -4 11 -9 0 -5 5
-13 13 -17 10 -7 9 -9 -5 -9 -11 0 -36 28 -67 76 -55 84 -58 92 -32 90 12 -1
16 6 15 24 -2 23 -1 24 10 6 7 -10 33 -51 59 -90z m38 -129 c0 -5 14 -25 30
-44 17 -18 30 -29 30 -22 0 6 7 9 15 5 21 -8 19 7 -3 27 -10 10 -22 14 -27 10
-4 -5 -5 -2 -1 5 6 10 34 -11 100 -75 50 -48 93 -89 96 -92 3 -2 -4 1 -15 6
-11 6 -27 8 -35 5 -8 -2 -12 -1 -8 3 13 14 -11 45 -30 39 -12 -4 -13 -3 -4 3
10 7 8 14 -8 28 -11 10 -23 15 -27 12 -3 -4 -12 -2 -19 4 -8 6 -20 9 -28 6
-12 -5 -31 11 -79 69 -14 17 -15 21 -2 21 8 0 15 -5 15 -10z m167 -182 c8 -8
19 -13 24 -9 5 3 9 2 8 -3 -3 -20 2 -27 11 -13 6 9 10 10 10 3 0 -26 -24 -24
-53 6 -18 17 -28 31 -24 31 5 0 15 -7 24 -15z m158 -61 l30 -25 -38 4 c-20 2
-37 7 -37 10 0 4 0 14 0 22 0 21 10 18 45 -11z m-62 0 c-5 -14 64 -67 89 -69
11 -1 23 -7 28 -15 5 -8 17 -11 31 -7 20 5 21 5 7 -10 -15 -14 -21 -13 -70 16
-61 34 -130 86 -123 93 9 9 42 3 38 -8z"/>
<path d="M5521 4576 c-10 -11 -10 -19 -1 -33 10 -16 11 -16 6 0 -3 11 0 17 9
17 8 0 16 -6 17 -12 0 -7 2 -22 3 -33 1 -11 3 -24 4 -29 0 -5 7 -3 14 3 8 6
17 7 22 3 5 -5 -23 40 -60 96 -1 1 -8 -4 -14 -12z"/>
<path d="M8051 4834 c0 -11 3 -14 6 -6 3 7 2 16 -1 19 -3 4 -6 -2 -5 -13z"/>
<path d="M7101 4814 c0 -11 3 -14 6 -6 3 7 2 16 -1 19 -3 4 -6 -2 -5 -13z"/>
<path d="M5280 4814 c0 -18 75 -190 110 -254 22 -41 39 -78 36 -84 -2 -6 -9 2
-15 17 -9 24 -14 26 -31 17 -18 -9 -23 -3 -59 67 -22 43 -40 74 -41 70 0 -12
57 -121 97 -185 58 -91 157 -214 216 -269 69 -62 147 -124 128 -100 -16 20 -2
23 19 5 8 -7 3 1 -13 18 -41 46 -33 50 18 8 24 -21 42 -41 39 -45 -2 -4 0 -10
5 -13 5 -4 8 0 7 8 -1 8 -45 55 -98 105 -165 157 -319 386 -388 579 -20 56
-30 74 -30 56z m144 -386 c21 -32 41 -56 44 -55 4 1 8 -2 9 -7 1 -5 7 -12 15
-17 7 -5 13 -15 13 -22 0 -21 65 -91 75 -81 11 11 -8 37 -37 53 -12 6 -20 17
-17 25 3 7 -11 30 -30 52 -20 21 -36 43 -36 47 0 5 -4 5 -10 2 -6 -4 -10 6
-10 22 0 27 1 26 33 -18 67 -97 117 -157 173 -213 33 -32 47 -51 33 -42 -14 9
-28 13 -31 10 -7 -6 24 -42 32 -38 4 1 12 -7 20 -19 12 -21 12 -21 -6 -7 -83
64 -165 147 -222 224 -74 99 -102 141 -102 153 0 10 9 -2 54 -69z"/>
<path d="M5585 4240 c-3 -5 1 -13 9 -16 9 -3 13 -11 9 -17 -3 -5 -1 -7 5 -4
13 9 9 40 -5 44 -6 2 -14 -1 -18 -7z"/>
<path d="M5630 4200 c0 -5 5 -10 11 -10 5 0 7 5 4 10 -3 6 -8 10 -11 10 -2 0
-4 -4 -4 -10z"/>
<path d="M7166 4784 c-4 -20 -5 -38 -3 -40 3 -3 8 11 11 32 4 20 5 38 3 40 -3
3 -8 -11 -11 -32z"/>
<path d="M7975 4738 c-9 -38 -14 -76 -11 -84 4 -10 2 -12 -6 -8 -7 5 -9 -1 -6
-19 3 -15 2 -24 -2 -22 -4 3 -11 -14 -15 -38 -4 -23 -9 -46 -10 -52 -2 -10
-26 -120 -31 -140 -1 -5 -7 -28 -13 -50 -6 -23 -9 -51 -6 -63 2 -12 0 -22 -5
-22 -5 0 -11 -14 -15 -31 -4 -17 -9 -28 -11 -26 -3 3 9 69 26 147 17 78 30
144 28 146 -3 2 -26 -91 -52 -207 -26 -116 -46 -213 -43 -215 2 -2 10 23 17
56 7 33 15 58 18 56 2 -3 -1 -27 -8 -54 -22 -94 -28 -162 -14 -162 8 0 11 -6
8 -15 -4 -8 0 -16 7 -17 8 -2 -292 -5 -666 -8 l-680 -5 679 0 679 0 3 62 c1
35 8 71 14 80 10 16 11 15 6 -7 -35 -178 -11 -105 39 118 46 205 51 233 35
197 -6 -13 -7 -2 -3 30 6 56 21 94 24 60 1 -22 59 201 58 225 -1 8 -4 4 -9
-10 -5 -17 -7 -3 -6 42 0 39 4 62 9 55 5 -7 7 -3 4 11 -3 12 -1 20 4 16 5 -3
9 -1 9 4 0 5 -9 12 -19 15 -16 4 -21 -5 -36 -65z m7 -193 c-14 -69 -17 -76
-22 -49 -4 17 -10 36 -14 42 -4 8 -2 10 8 6 10 -4 16 4 21 25 3 17 4 35 1 40
-5 7 13 22 21 17 0 0 -6 -37 -15 -81z m-25 23 c-3 -8 -6 -5 -6 6 -1 11 2 17 5
13 3 -3 4 -12 1 -19z m-53 -364 c-14 -65 -31 -123 -36 -129 -8 -7 -9 -4 -4 10
13 35 29 119 30 153 0 17 4 32 8 32 4 0 8 7 8 16 0 14 -2 15 -17 3 -16 -13
-17 -12 -4 3 7 10 18 15 24 11 6 -4 8 2 4 17 -4 14 -2 19 4 13 6 -6 -1 -53
-17 -129z"/>
<path d="M8036 4774 c-4 -20 -5 -38 -3 -40 3 -3 8 11 11 32 4 20 5 38 3 40 -3
3 -8 -11 -11 -32z"/>
<path d="M2381 4790 c0 -8 4 -22 9 -30 12 -18 12 -2 0 25 -6 13 -9 15 -9 5z"/>
<path d="M2317 4783 c-4 -3 -7 -11 -7 -17 0 -6 4 -5 9 3 7 11 10 11 17 0 5 -8
10 -23 11 -34 2 -11 13 -45 25 -77 19 -47 24 -54 34 -40 8 11 9 24 2 44 -5 15
-8 33 -6 39 2 7 25 -44 51 -112 43 -116 51 -169 26 -169 -13 0 -11 14 4 29 10
11 10 14 0 18 -7 3 -13 11 -13 19 0 9 -4 13 -9 9 -6 -3 -14 3 -20 12 -8 14
-10 11 -6 -17 l5 -35 -20 40 c-24 47 -21 34 10 -53 13 -34 25 -61 27 -59 2 2
-1 17 -7 32 -12 32 -6 60 11 49 8 -5 8 -9 -1 -14 -9 -6 -9 -12 0 -30 6 -12 9
-32 7 -43 -3 -12 1 -35 9 -52 10 -21 13 -23 10 -8 -2 14 1 20 8 17 7 -3 13 1
13 9 0 9 -7 12 -19 9 -10 -2 -18 1 -18 7 0 6 3 10 8 10 25 -4 30 4 25 44 l-4
42 20 -40 c31 -64 24 -33 -17 72 -22 54 -52 134 -67 177 -16 44 -31 74 -33 68
-2 -6 -9 -9 -17 -6 -8 3 -11 13 -8 21 4 11 2 14 -5 9 -6 -4 -17 2 -24 14 -14
21 -20 24 -31 13z m176 -388 c4 -8 2 -17 -3 -20 -6 -4 -10 3 -10 14 0 25 6 27
13 6z"/>
<path d="M5267 4770 c-3 -11 -1 -20 3 -20 8 0 5 -38 -3 -46 -2 -2 -9 14 -16
37 -7 22 -14 39 -17 37 -2 -3 3 -26 12 -52 11 -30 19 -43 24 -36 10 16 31 4
24 -14 -3 -7 2 -16 11 -20 9 -3 13 -10 10 -16 -3 -5 3 -31 15 -57 17 -38 23
-45 31 -33 8 12 9 10 4 -7 -5 -17 -2 -23 9 -23 9 0 16 2 16 4 0 12 -90 187
-95 186 -4 -1 -9 1 -12 4 -4 3 -1 6 5 6 7 0 8 10 2 31 -12 41 -16 44 -23 19z"/>
<path d="M7961 4764 c0 -11 3 -14 6 -6 3 7 2 16 -1 19 -3 4 -6 -2 -5 -13z"/>
<path d="M2326 4730 c4 -14 13 -38 20 -55 11 -24 13 -25 8 -5 -4 14 -13 39
-20 55 -11 24 -13 25 -8 5z"/>
<path d="M5440 4740 c-9 -6 -10 -10 -3 -10 6 0 15 5 18 10 8 12 4 12 -15 0z"/>
<path d="M7951 4724 c0 -11 3 -14 6 -6 3 7 2 16 -1 19 -3 4 -6 -2 -5 -13z"/>
<path d="M3525 4719 c-4 -6 -5 -12 -2 -15 2 -3 7 2 10 11 7 17 1 20 -8 4z"/>
<path d="M7138 4673 l-14 -58 -224 -5 -225 -6 227 -2 227 -2 10 38 c19 74 23
92 18 92 -3 0 -11 -26 -19 -57z"/>
<path d="M3670 4703 c0 -7 5 -13 10 -13 6 0 10 5 10 11 0 6 7 8 16 5 8 -3 12
-2 9 3 -8 14 -45 9 -45 -6z"/>
<path d="M8021 4704 c0 -11 3 -14 6 -6 3 7 2 16 -1 19 -3 4 -6 -2 -5 -13z"/>
<path d="M3651 4705 c0 -15 28 -62 29 -47 0 6 9 12 20 12 14 0 20 -6 19 -22
-1 -17 -2 -19 -6 -5 -2 9 -9 17 -15 17 -6 0 -4 -10 5 -22 8 -13 18 -23 23 -23
5 0 16 -4 24 -9 12 -7 11 -5 -1 10 -10 10 -19 28 -21 39 -2 14 -11 20 -28 20
-14 0 -30 9 -37 20 -7 11 -12 16 -12 10z"/>
<path d="M3732 4700 c19 -51 72 -170 75 -167 4 5 -65 169 -74 177 -3 3 -4 -2
-1 -10z"/>
<path d="M6580 4690 c14 -4 34 -8 45 -8 16 0 15 2 -5 8 -14 4 -34 8 -45 8 -16
0 -15 -2 5 -8z"/>
<path d="M7942 4680 c0 -14 2 -19 5 -12 2 6 2 18 0 25 -3 6 -5 1 -5 -13z"/>
<path d="M6663 4673 c9 -2 25 -2 35 0 9 3 1 5 -18 5 -19 0 -27 -2 -17 -5z"/>
<path d="M6720 4633 c0 -9 14 -13 41 -13 28 0 39 4 37 12 -6 17 -78 18 -78 1z"/>
<path d="M6807 4634 c5 -13 7 -13 14 -2 5 8 9 8 9 2 0 -7 26 -12 70 -13 58 -1
69 1 64 14 -5 12 -24 15 -85 15 -67 0 -78 -2 -72 -16z"/>
<path d="M7931 4634 c0 -11 3 -14 6 -6 3 7 2 16 -1 19 -3 4 -6 -2 -5 -13z"/>
<path d="M2360 4638 c0 -2 7 -26 16 -52 16 -46 17 -47 31 -26 15 22 16 22 33
-17 23 -48 24 -41 5 25 -18 60 -30 66 -41 20 l-7 -33 -13 39 c-13 36 -24 57
-24 44z"/>
<path d="M3683 4630 c12 -39 60 -150 63 -147 5 4 -39 117 -55 143 -7 10 -10
12 -8 4z"/>
<path d="M7921 4594 c0 -11 3 -14 6 -6 3 7 2 16 -1 19 -3 4 -6 -2 -5 -13z"/>
<path d="M3720 4595 c0 -9 30 -65 34 -65 2 0 -1 16 -7 35 -6 19 -14 35 -19 35
-4 0 -8 -2 -8 -5z"/>
<path d="M3757 4570 c3 -11 9 -20 14 -20 11 0 11 3 3 24 -9 23 -23 20 -17 -4z"/>
<path d="M7906 4534 c-4 -20 -5 -38 -3 -40 3 -3 8 11 11 32 4 20 5 38 3 40 -3
3 -8 -11 -11 -32z"/>
<path d="M3776 4532 c-4 -7 -2 -12 4 -12 7 0 10 -7 6 -15 -3 -8 0 -15 7 -15 8
0 8 -3 -2 -9 -10 -6 -10 -10 -1 -16 9 -6 9 -9 0 -15 -17 -10 -3 -31 15 -23 19
7 18 28 -4 77 -11 26 -20 36 -25 28z"/>
<path d="M3810 4515 c0 -5 5 -17 10 -25 5 -8 10 -10 10 -5 0 6 -5 17 -10 25
-5 8 -10 11 -10 5z"/>
<path d="M4806 4473 c-6 -14 -5 -15 5 -6 7 7 10 15 7 18 -3 3 -9 -2 -12 -12z"/>
<path d="M3755 4470 c-3 -5 1 -22 10 -37 9 -16 13 -19 9 -8 -4 11 -7 28 -8 38
0 20 -2 21 -11 7z"/>
<path d="M3831 4465 c0 -5 6 -21 14 -35 8 -14 14 -20 14 -15 0 6 -6 21 -14 35
-8 14 -14 21 -14 15z"/>
<path d="M3812 4418 c-17 -17 -15 -29 3 -21 10 3 15 0 13 -8 -5 -26 -23 -28
-36 -6 -13 22 -13 22 -6 -3 4 -14 17 -47 29 -75 20 -46 22 -48 21 -18 -1 17
-4 29 -7 27 -4 -2 -10 3 -13 12 -9 23 -7 34 5 34 5 0 7 -4 4 -10 -3 -5 -1 -10
4 -10 16 0 18 66 2 83 -4 4 -12 2 -19 -5z"/>
<path d="M7952 4400 c0 -14 2 -19 5 -12 2 6 2 18 0 25 -3 6 -5 1 -5 -13z"/>
<path d="M3855 4381 c-4 -13 -4 -25 -1 -28 3 -4 6 2 6 13 0 16 2 17 10 4 5 -8
10 -10 10 -5 0 6 -4 16 -9 24 -7 11 -10 9 -16 -8z"/>
<path d="M2542 4360 c25 -73 92 -239 95 -236 4 4 -85 238 -94 246 -3 3 -4 -2
-1 -10z"/>
<path d="M2518 4337 c-2 -13 2 -29 9 -36 7 -7 11 -16 8 -22 -4 -5 -2 -9 3 -9
5 0 9 -7 9 -15 0 -8 -4 -15 -9 -15 -5 0 -6 -10 -2 -22 15 -49 15 -52 -1 -28
-20 31 -17 20 32 -108 20 -51 38 -91 40 -88 2 2 -7 32 -21 66 -14 34 -23 66
-20 71 3 5 0 9 -5 9 -6 0 -11 7 -11 15 0 8 5 15 10 15 6 0 11 -7 11 -15 1 -8
3 -19 4 -25 1 -5 3 -15 4 -21 0 -5 6 -7 13 -3 7 5 8 3 3 -6 -6 -10 -3 -12 11
-7 17 6 17 6 3 -5 -17 -14 -14 -42 3 -32 7 4 8 2 4 -4 -4 -6 -1 -30 5 -52 8
-26 15 -36 20 -28 4 7 3 18 -3 25 -6 8 -8 16 -4 20 3 3 6 1 6 -5 0 -6 9 -9 20
-7 13 3 20 -2 20 -12 0 -9 3 -14 6 -10 3 3 3 15 -1 28 -5 15 -9 18 -15 9 -5
-8 -12 1 -20 26 -7 22 -20 53 -28 69 -9 17 -17 32 -17 35 -8 37 -30 88 -36 84
-4 -2 -8 4 -8 13 1 16 -28 103 -36 111 -1 2 -5 -8 -7 -21z m62 -143 c0 -8 -4
-14 -10 -14 -5 0 -10 9 -10 21 0 11 5 17 10 14 6 -3 10 -13 10 -21z m25 -64
c3 -5 1 -10 -4 -10 -6 0 -11 5 -11 10 0 6 2 10 4 10 3 0 8 -4 11 -10z"/>
<path d="M3880 4347 c0 -3 9 -28 19 -55 15 -38 17 -49 6 -49 -8 0 -14 3 -13 6
3 26 -5 40 -20 38 -14 -1 -17 -7 -14 -25 4 -18 7 -21 14 -10 8 10 9 9 4 -4 -7
-24 35 -133 45 -116 6 9 10 8 15 -5 9 -24 23 -21 17 3 -3 11 -8 18 -12 16 -4
-3 -13 -1 -21 5 -13 7 -12 9 2 9 15 0 15 4 6 31 -21 61 0 37 27 -31 16 -39 30
-68 32 -66 4 3 -94 245 -103 255 -2 2 -4 1 -4 -2z m35 -156 c3 -5 1 -12 -5
-16 -5 -3 -10 1 -10 9 0 18 6 21 15 7z"/>
<path d="M4782 4255 c-30 -62 -27 -71 4 -12 14 27 24 51 22 53 -3 2 -14 -17
-26 -41z"/>
<path d="M2490 4285 c0 -5 5 -17 10 -25 5 -8 10 -10 10 -5 0 6 -5 17 -10 25
-5 8 -10 11 -10 5z"/>
<path d="M3843 4238 c36 -93 121 -287 124 -284 2 2 -6 25 -18 52 -12 27 -21
62 -21 79 1 17 -2 24 -7 17 -4 -7 -20 19 -40 68 -19 44 -36 80 -38 80 -3 0 -3
-6 0 -12z"/>
<path d="M3257 4193 c-4 -3 -7 -11 -7 -17 0 -6 5 -5 12 2 6 6 9 14 7 17 -3 3
-9 2 -12 -2z"/>
<path d="M3318 4195 c-3 -4 -14 -8 -24 -9 -20 -3 -90 -131 -98 -178 -6 -36
-14 -48 -32 -48 -8 0 -12 5 -9 10 4 6 11 8 16 5 5 -3 6 0 3 8 -3 8 13 51 35
96 23 45 39 81 36 81 -3 0 -27 -43 -52 -95 l-46 -95 -231 -2 c-127 0 -238 -1
-246 0 -16 1 -43 -45 -34 -59 3 -5 130 -9 283 -9 254 0 280 2 292 18 11 14 11
15 -1 5 -10 -10 -84 -13 -292 -13 -153 0 -278 3 -278 8 0 4 124 6 275 4 l274
-3 16 25 c9 14 18 31 19 38 3 26 18 41 26 28 5 -8 9 -7 13 5 4 9 3 13 -3 10
-13 -8 -13 1 1 26 5 11 15 17 20 13 7 -4 7 1 0 15 -7 11 -14 21 -17 21 -3 0
-3 -4 0 -8 3 -5 -1 -9 -9 -9 -11 0 -11 5 -4 19 9 16 13 17 27 6 9 -7 13 -8 9
-2 -4 7 0 15 9 18 12 5 15 2 10 -11 -5 -12 -4 -15 3 -8 14 14 44 88 32 81 -5
-3 -11 -1 -13 5 -2 5 -6 7 -10 4z m2 -52 c-11 -17 -11 -17 -6 0 3 10 6 24 7
30 0 9 2 9 5 0 3 -7 0 -20 -6 -30z m-187 -200 c-4 -10 -8 -12 -10 -6 -3 8 -67
12 -215 13 -117 0 -214 3 -217 5 -2 3 98 5 222 5 209 0 226 -1 220 -17z m67 3
c0 -3 -4 -8 -10 -11 -5 -3 -10 -1 -10 4 0 6 5 11 10 11 6 0 10 -2 10 -4z"/>
<path d="M4725 4139 c-4 -6 -5 -12 -2 -15 2 -3 7 2 10 11 7 17 1 20 -8 4z"/>
<path d="M2646 4090 c3 -14 11 -32 16 -40 6 -10 7 -7 2 10 -3 14 -11 32 -16
40 -6 10 -7 7 -2 -10z"/>
<path d="M4692 4065 c-30 -62 -27 -71 4 -12 14 27 24 51 22 53 -3 2 -14 -17
-26 -41z"/>
<path d="M3950 4090 c8 -5 15 -15 15 -22 0 -7 7 -13 15 -13 8 0 20 -9 27 -20
17 -28 15 -5 -2 25 -8 14 -14 19 -15 10 0 -10 -5 -7 -16 8 -8 12 -21 22 -27
22 -7 0 -6 -4 3 -10z"/>
<path d="M6088 4083 c6 -2 9 -10 6 -15 -4 -7 -2 -8 5 -4 13 9 5 26 -12 25 -9
0 -8 -2 1 -6z"/>
<path d="M5810 4077 c0 -3 18 -20 40 -37 22 -17 40 -29 40 -27 0 3 -18 20 -40
37 -22 17 -40 29 -40 27z"/>
<path d="M5765 4059 c7 -10 85 -52 85 -45 0 2 -20 16 -45 30 -25 13 -43 21
-40 15z"/>
<path d="M6128 4061 c11 -6 10 -10 -4 -15 -9 -3 -14 -9 -11 -12 3 -3 15 1 27
9 18 13 19 15 5 21 -23 9 -32 7 -17 -3z"/>
<path d="M6075 4040 c-3 -6 1 -7 9 -4 18 7 21 14 7 14 -6 0 -13 -4 -16 -10z"/>
<path d="M6210 4030 c8 -5 22 -9 30 -9 10 0 8 3 -5 9 -27 12 -43 12 -25 0z"/>
<path d="M7792 4020 c0 -14 2 -19 5 -12 2 6 2 18 0 25 -3 6 -5 1 -5 -13z"/>
<path d="M6168 4023 c7 -3 16 -2 19 1 4 3 -2 6 -13 5 -11 0 -14 -3 -6 -6z"/>
<path d="M5892 4001 c-11 -6 -10 -10 4 -15 9 -3 19 -4 22 -1 3 3 0 5 -7 5 -7
0 -9 5 -6 10 7 12 4 12 -13 1z"/>
<path d="M6195 4002 c-12 -12 -4 -20 15 -15 11 3 20 9 20 12 0 9 -27 10 -35 3z"/>
<path d="M6244 3998 c4 -12 0 -18 -12 -19 -11 -1 -8 -4 8 -8 30 -9 40 -5 39
17 0 11 -2 13 -6 4 -4 -10 -9 -9 -20 5 -13 17 -14 17 -9 1z"/>
<path d="M6290 3990 c0 -15 7 -20 28 -21 24 0 25 -1 7 -9 l-20 -9 20 -1 c17
-2 16 -3 -5 -10 -18 -7 -11 -8 25 -5 34 3 42 2 25 -3 -22 -8 -19 -9 23 -16 27
-4 51 -5 55 -2 3 3 -7 6 -21 6 -25 0 -32 8 -28 38 1 6 -6 12 -17 12 -10 0 -24
-6 -31 -12 -9 -9 -12 -10 -9 -1 2 6 -6 19 -17 28 -18 15 -18 16 -2 11 10 -3
37 -8 60 -11 37 -4 35 -3 -13 10 -73 19 -80 18 -80 -5z"/>
<path d="M6146 3979 c21 -10 46 -17 54 -17 8 0 2 4 -14 10 -16 6 -24 13 -17
17 6 4 -6 7 -26 7 l-36 0 39 -17z"/>
<path d="M7781 3983 c-1 -10 -133 -14 -618 -15 l-618 -3 617 -5 c545 -4 616
-7 608 -20 -6 -9 -10 -10 -10 -3 0 18 -546 18 -553 1 -4 -10 -6 -10 -6 0 -1 7
-15 12 -36 12 -21 0 -35 -5 -35 -12 0 -10 -2 -10 -8 -1 -10 16 -550 14 -542
-2 7 -13 73 -13 82 0 5 6 8 5 8 -2 0 -10 117 -13 550 -13 544 0 549 0 560 21
6 11 9 28 7 37 -3 9 -5 11 -6 5z"/>
<path d="M4637 3945 l-17 -35 -317 -3 -318 -2 319 0 320 0 19 33 c11 18 17 35
15 37 -2 3 -12 -11 -21 -30z"/>
<path d="M6430 3976 c0 -2 18 -6 40 -8 22 -2 40 0 40 4 0 5 -18 8 -40 8 -22 0
-40 -2 -40 -4z"/>
<path d="M6235 3950 c11 -5 29 -8 40 -8 16 0 15 2 -5 8 -34 11 -60 11 -35 0z"/>
<path d="M6435 3950 c3 -5 1 -10 -6 -10 -7 0 -10 -2 -7 -5 3 -3 37 -8 75 -11
60 -4 70 -3 70 11 0 14 -9 16 -49 13 -26 -1 -48 0 -48 5 0 4 -9 7 -21 7 -11 0
-17 -4 -14 -10z"/>
<path d="M4600 3930 c0 -5 5 -10 10 -10 6 0 10 5 10 10 0 6 -4 10 -10 10 -5 0
-10 -4 -10 -10z"/>
<path d="M7795 3930 c-3 -5 -1 -10 4 -10 6 0 11 5 11 10 0 6 -2 10 -4 10 -3 0
-8 -4 -11 -10z"/>
</g>
</svg>
