<?xml version="1.0" standalone="no"?>
<!DOCTYPE svg PUBLIC "-//W3C//DTD SVG 20010904//EN"
 "http://www.w3.org/TR/2001/REC-SVG-20010904/DTD/svg10.dtd">
<svg version="1.0" xmlns="http://www.w3.org/2000/svg"
 width="512.000000pt" height="512.000000pt" viewBox="0 0 512.000000 512.000000"
 preserveAspectRatio="xMidYMid meet">

<g transform="translate(0.000000,512.000000) scale(0.100000,-0.100000)"
fill="#000000" stroke="none">
<path d="M2365 4868 c-592 -66 -1104 -484 -1296 -1058 -69 -206 -79 -299 -79
-714 0 -315 -3 -376 -19 -467 -90 -488 -242 -914 -425 -1192 -76 -116 -90
-151 -84 -222 7 -84 45 -137 146 -202 168 -110 366 -180 572 -202 132 -14 169
-24 255 -69 50 -27 100 -66 175 -140 173 -171 322 -256 544 -312 272 -69 605
-63 863 15 190 58 307 129 472 288 162 156 241 195 428 217 231 26 409 88 587
204 96 62 133 113 142 192 9 72 -8 119 -82 230 -175 264 -321 664 -414 1132
l-30 153 0 362 c0 459 -15 567 -111 812 -126 325 -390 625 -696 792 -285 155
-617 218 -948 181z m480 -176 c261 -57 485 -176 677 -361 123 -118 210 -232
281 -370 138 -267 166 -435 167 -998 0 -282 2 -310 26 -430 97 -488 251 -909
436 -1184 71 -107 74 -134 21 -179 -55 -46 -245 -136 -345 -164 -47 -14 -133
-30 -190 -36 -243 -26 -340 -73 -528 -255 -122 -118 -170 -152 -286 -207 -307
-144 -791 -144 -1098 0 -116 55 -162 88 -296 217 -64 60 -141 125 -172 143
-76 45 -179 80 -274 92 -186 25 -232 33 -303 57 -94 31 -253 112 -303 153 -55
46 -52 74 22 184 177 263 322 651 427 1141 25 114 27 141 33 540 6 319 12 442
24 510 53 291 191 556 393 758 225 223 475 351 788 403 114 19 383 11 500 -14z"/>
<path d="M2068 4000 c-170 -43 -321 -83 -337 -89 -27 -12 -51 -47 -51 -76 0
-7 25 -63 55 -123 66 -133 119 -191 213 -235 59 -28 77 -32 152 -31 119 1 186
28 266 108 86 87 106 141 112 314 3 89 0 142 -8 161 -12 29 -47 52 -78 50 -9
0 -155 -36 -324 -79z m241 -250 c-40 -142 -232 -197 -345 -98 -31 28 -91 124
-82 133 2 2 100 28 218 58 l215 53 3 -50 c2 -28 -2 -71 -9 -96z"/>
<path d="M2683 4068 c-37 -18 -45 -56 -41 -200 6 -172 25 -227 112 -314 81
-81 148 -108 266 -108 75 -1 93 3 152 31 94 44 147 102 213 235 30 60 55 116
55 123 0 27 -23 63 -47 74 -28 13 -656 171 -675 170 -7 0 -23 -5 -35 -11z
m555 -283 c7 -7 -48 -102 -75 -127 -83 -79 -215 -76 -298 7 -46 46 -65 98 -65
177 l0 56 217 -55 c120 -30 219 -56 221 -58z"/>
<path d="M2472 3429 c-81 -16 -147 -56 -383 -233 -250 -186 -262 -200 -239
-257 7 -15 25 -33 41 -39 26 -11 64 -4 334 64 168 42 318 76 335 76 17 0 167
-34 335 -76 270 -68 308 -75 334 -64 16 6 34 24 41 39 23 57 11 71 -239 257
-130 98 -259 188 -287 201 -87 40 -179 51 -272 32z m178 -164 c43 -15 175
-103 167 -111 -3 -3 -42 5 -88 17 -56 15 -113 23 -169 23 -56 0 -113 -8 -169
-23 -46 -12 -85 -20 -87 -18 -7 7 125 98 163 112 51 18 131 18 183 0z"/>
</g>
</svg>
